<svg xmlns="http://www.w3.org/2000/svg" xmlns:xlink="http://www.w3.org/1999/xlink" width="500" zoomAndPan="magnify" viewBox="0 0 375 374.999991" height="500" preserveAspectRatio="xMidYMid meet" version="1.0"><defs><g/></defs><g fill="#000000" fill-opacity="1"><g transform="translate(14.64013, 246.393152)"><g><path d="M 139.292969 -156.78125 C 138.484375 -156.710938 137.824219 -156.304688 137.207031 -155.4375 C 133.519531 -153.835938 123.691406 -152.160156 107.820312 -150.644531 C 91.832031 -149.121094 75.835938 -147.714844 59.585938 -146.515625 L 51.992188 -145.84375 C 52.066406 -146.316406 52.035156 -146.660156 52.121094 -147.015625 L 52.109375 -147.132812 C 52.175781 -147.71875 52.132812 -148.179688 51.875 -148.503906 C 51.496094 -148.816406 51.015625 -149.007812 50.441406 -148.957031 C 49.867188 -148.90625 49.425781 -148.636719 48.996094 -148.25 C 48.453125 -147.851562 48.148438 -147.363281 48.082031 -146.777344 L 48.09375 -146.660156 C 48.007812 -146.304688 47.921875 -145.953125 47.839844 -145.597656 C 27.457031 -143.917969 12.964844 -142.523438 4.25 -141.410156 C -4.582031 -140.285156 -9.460938 -139.042969 -10.613281 -137.664062 C -11.265625 -137.144531 -11.675781 -136.527344 -11.730469 -135.828125 C -11.792969 -135.242188 -11.742188 -134.667969 -11.367188 -134.351562 C -11.105469 -134.027344 -10.625 -133.835938 -10.050781 -133.886719 C -9.359375 -133.949219 -8.699219 -134.355469 -8.175781 -134.980469 C -5.484375 -136.027344 1.140625 -137.191406 11.835938 -138.25 C 22.527344 -139.308594 34.265625 -140.339844 47.167969 -141.359375 C 45.921875 -134.410156 44.128906 -124.507812 41.789062 -111.542969 C 39.347656 -98.453125 36.859375 -84.550781 34.214844 -69.820312 C 31.3125 -54.023438 28.835938 -40 26.65625 -27.863281 C 24.375 -15.601562 22.972656 -7.820312 22.34375 -4.402344 C 22.28125 -3.816406 22.320312 -3.355469 22.695312 -3.042969 C 23.082031 -2.613281 23.449219 -2.414062 24.023438 -2.464844 C 24.597656 -2.515625 25.039062 -2.785156 25.574219 -3.296875 C 26.003906 -3.683594 26.308594 -4.171875 26.375 -4.757812 C 27 -8.175781 28.402344 -15.957031 30.6875 -28.21875 C 32.863281 -40.355469 35.34375 -54.375 38.253906 -70.058594 C 38.328125 -70.527344 38.402344 -71 38.476562 -71.46875 C 41.140625 -85.972656 43.648438 -99.644531 45.894531 -112.371094 C 48.136719 -125.09375 49.941406 -134.878906 51.195312 -141.714844 C 53.84375 -141.949219 56.375 -142.171875 58.800781 -142.269531 C 84.488281 -144.300781 103.925781 -146.128906 117.132812 -147.636719 C 130.222656 -149.140625 137.726562 -150.84375 139.761719 -152.761719 C 140.515625 -153.410156 140.917969 -154.140625 140.960938 -154.957031 C 141.023438 -155.542969 140.984375 -156 140.722656 -156.328125 C 140.347656 -156.640625 139.867188 -156.832031 139.292969 -156.78125 Z M 139.292969 -156.78125 "/></g></g></g><g fill="#000000" fill-opacity="1"><g transform="translate(73.040243, 241.231225)"><g><path d="M 5.644531 -66.246094 C 4.953125 -66.207031 4.273438 -65.941406 3.597656 -65.558594 C 2.039062 -64.433594 0.847656 -62.867188 -0.0742188 -60.621094 C -1 -58.375 -1.464844 -56.265625 -1.363281 -54.304688 C -1.332031 -53.730469 -1.179688 -53.042969 -0.796875 -52.367188 C -0.53125 -51.6875 -0.0507812 -51.367188 0.757812 -51.410156 C 2.027344 -51.476562 3.691406 -52.835938 5.519531 -55.476562 C 7.351562 -58.003906 9.167969 -60.878906 10.859375 -63.859375 C 10.136719 -64.398438 9.292969 -65.050781 8.457031 -65.582031 C 7.617188 -66.117188 6.683594 -66.300781 5.644531 -66.246094 Z M 17.945312 -69.902344 C 18.085938 -69.445312 17.902344 -68.511719 17.523438 -66.988281 C 16.453125 -63.113281 16.164062 -59.859375 16.636719 -57.453125 C 17.117188 -54.933594 19.164062 -53.421875 22.886719 -53.039062 C 30.914062 -52.191406 41.546875 -56.800781 55.007812 -67 C 55.566406 -67.375 56.136719 -67.519531 56.714844 -67.550781 C 57.179688 -67.460938 57.539062 -67.25 57.910156 -66.804688 C 58.164062 -66.355469 58.1875 -65.894531 58.105469 -65.3125 C 57.902344 -64.722656 57.582031 -64.242188 57.023438 -63.867188 C 44.339844 -54.289062 33.617188 -49.210938 24.960938 -48.753906 C 23.695312 -48.6875 22.535156 -48.742188 21.367188 -48.910156 C 17.523438 -49.402344 15.027344 -50.660156 13.878906 -52.679688 C 12.738281 -54.585938 12.167969 -56.640625 12.277344 -58.957031 C 11.734375 -58.234375 11.3125 -57.519531 10.886719 -56.804688 C 9.179688 -54.050781 7.445312 -51.878906 5.574219 -50.042969 C 3.703125 -48.210938 1.898438 -47.304688 -0.0625 -47.199219 C -3.175781 -47.035156 -5.015625 -49.023438 -5.460938 -53.046875 C -5.714844 -55.695312 -5.0625 -58.621094 -3.726562 -61.816406 C -2.382812 -64.894531 -0.3125 -67.320312 2.261719 -68.957031 C 3.488281 -69.832031 5.085938 -70.265625 7.046875 -70.367188 C 8.890625 -70.464844 10.902344 -69.644531 13.191406 -67.914062 C 13.507812 -68.511719 13.828125 -68.992188 14.152344 -69.46875 C 14.464844 -70.066406 14.910156 -70.4375 15.472656 -70.699219 C 16.039062 -70.957031 16.5 -70.984375 17.089844 -70.78125 C 17.558594 -70.691406 17.804688 -70.359375 17.945312 -69.902344 Z M 17.945312 -69.902344 "/></g></g></g><g fill="#000000" fill-opacity="1"><g transform="translate(128.390396, 238.2486)"><g><path d="M 8.816406 -36.328125 C -3.019531 -26.40625 -11.96875 -16.421875 -18.144531 -6.488281 C -24.316406 3.558594 -27.75 11.828125 -28.441406 18.308594 C -28.648438 19.585938 -28.625 20.855469 -28.484375 22.355469 C -28.339844 23.855469 -27.96875 25.234375 -27.140625 26.261719 C -26.429688 27.402344 -25.148438 27.957031 -23.300781 27.921875 C -20.527344 27.875 -17.886719 26.902344 -15.496094 24.894531 C -10.378906 20.292969 -5.898438 12.585938 -2.050781 1.539062 C 1.792969 -9.507812 5.378906 -22.054688 8.816406 -36.328125 Z M 7.703125 -66.003906 C 7.125 -65.996094 6.4375 -65.75 5.75 -65.390625 C 4.035156 -64.320312 2.792969 -62.796875 1.792969 -60.582031 C 0.792969 -58.371094 0.367188 -56.28125 0.402344 -54.316406 C 0.296875 -53.738281 0.425781 -53.046875 0.785156 -52.359375 C 1.027344 -51.671875 1.496094 -51.332031 2.304688 -51.347656 C 3.578125 -51.371094 5.285156 -52.671875 7.203125 -55.25 C 9.125 -57.710938 11.039062 -60.519531 12.835938 -63.441406 C 12.246094 -64.007812 11.425781 -64.6875 10.605469 -65.25 C 9.671875 -65.808594 8.742188 -66.023438 7.703125 -66.003906 Z M 17.683594 -70.113281 C 18.140625 -70.355469 18.488281 -70.359375 18.949219 -70.253906 L 19.066406 -70.253906 C 19.644531 -70.265625 19.996094 -70.042969 20.347656 -69.699219 C 20.699219 -69.359375 20.707031 -68.898438 20.601562 -68.320312 C 19.09375 -62.28125 17.585938 -56.246094 16.191406 -50.328125 L 15.117188 -45.917969 C 27.550781 -54.695312 42.449219 -61.664062 59.804688 -66.832031 C 60.378906 -66.957031 60.839844 -66.96875 61.308594 -66.746094 C 61.660156 -66.40625 61.898438 -66.0625 61.90625 -65.484375 C 61.917969 -64.90625 61.695312 -64.441406 61.355469 -63.972656 C 61.019531 -63.386719 60.449219 -63.03125 59.875 -62.90625 C 41.71875 -57.375 26.371094 -49.820312 13.832031 -40.230469 C 10.074219 -24.332031 6.167969 -10.28125 1.996094 1.695312 C -2.292969 13.792969 -7.335938 22.433594 -13.363281 27.742188 C -16.78125 30.578125 -20.453125 32.03125 -24.378906 32.101562 C -30.5 32.214844 -33.238281 27.871094 -32.707031 18.964844 C -31.917969 11.441406 -27.929688 2.007812 -20.851562 -9.328125 C -13.777344 -20.550781 -3.457031 -31.484375 10.214844 -42.246094 L 12.148438 -50.140625 L 14.191406 -58.726562 L 12.613281 -56.386719 C 10.816406 -53.699219 9.003906 -51.585938 7.070312 -49.816406 C 5.140625 -48.046875 3.304688 -47.207031 1.34375 -47.171875 C -1.777344 -47.113281 -3.433594 -49.164062 -3.851562 -53.199219 C -3.898438 -55.859375 -3.144531 -58.761719 -1.699219 -61.90625 C -0.25 -64.9375 1.785156 -67.285156 4.417969 -68.835938 C 5.789062 -69.667969 7.398438 -70.042969 9.246094 -70.078125 C 11.09375 -70.113281 13.074219 -69.222656 15.304688 -67.414062 C 15.640625 -68 15.980469 -68.464844 16.316406 -68.933594 C 16.652344 -69.519531 17.109375 -69.875 17.683594 -70.113281 Z M 17.683594 -70.113281 "/></g></g></g><g fill="#000000" fill-opacity="1"><g transform="translate(185.046438, 237.01083)"><g><path d="M 34.738281 -67.667969 C 35.445312 -68.460938 36.152344 -69.023438 36.617188 -69.128906 C 37.195312 -69.230469 37.660156 -69.222656 38.113281 -68.863281 C 38.457031 -68.625 38.5625 -68.277344 38.671875 -67.929688 C 38.667969 -67.699219 38.660156 -67.351562 38.652344 -67.121094 L 38.40625 -66.316406 C 37.664062 -64.136719 37.152344 -61.835938 36.875 -59.648438 C 36.597656 -57.457031 37.015625 -55.484375 38.253906 -53.839844 C 39.488281 -52.195312 42.011719 -51.214844 45.8125 -50.789062 C 50.777344 -50.566406 56.007812 -51.839844 61.730469 -54.722656 C 67.453125 -57.488281 72.605469 -60.613281 77.183594 -63.863281 C 77.765625 -64.199219 78.230469 -64.304688 78.808594 -64.292969 C 79.382812 -64.164062 79.726562 -63.925781 80.066406 -63.570312 C 80.285156 -63.105469 80.277344 -62.644531 80.148438 -62.066406 C 79.90625 -61.496094 79.546875 -61.039062 78.960938 -60.707031 C 73.917969 -57.234375 68.535156 -53.996094 62.808594 -51.117188 C 56.964844 -48.121094 51.273438 -46.625 45.839844 -46.625 C 45.261719 -46.640625 44.800781 -46.648438 44.339844 -46.773438 C 39.269531 -47.34375 35.949219 -48.804688 34.496094 -51.144531 C 32.925781 -53.375 32.289062 -55.929688 32.695312 -58.8125 C 32.710938 -59.503906 32.839844 -60.078125 32.851562 -60.65625 C 30.371094 -58.167969 27.902344 -56.140625 25.558594 -54.574219 C 21.566406 -51.769531 18.058594 -49.882812 14.917969 -48.910156 C 11.777344 -47.9375 9.339844 -47.410156 7.375 -47.453125 C 6.796875 -47.464844 6.222656 -47.476562 5.644531 -47.605469 C -0.683594 -48.78125 -1.460938 -55.617188 3.078125 -68 C 3.324219 -68.574219 3.683594 -69.144531 4.265625 -69.476562 C 4.738281 -69.8125 5.199219 -69.917969 5.777344 -69.792969 C 6.351562 -69.777344 6.8125 -69.539062 7.035156 -69.1875 C 7.253906 -68.71875 7.242188 -68.140625 7.113281 -67.566406 C 5.765625 -63.898438 4.894531 -61.027344 4.617188 -58.953125 C 4.339844 -56.761719 4.421875 -55.257812 4.746094 -54.210938 C 5.070312 -53.164062 5.519531 -52.460938 6.089844 -52.101562 C 6.660156 -51.746094 7.117188 -51.617188 7.582031 -51.609375 C 9.070312 -51 12.324219 -51.855469 17.339844 -53.941406 C 22.234375 -55.917969 27.996094 -60.53125 34.738281 -67.667969 Z M 34.738281 -67.667969 "/></g></g></g><g fill="#000000" fill-opacity="1"><g transform="translate(255.925669, 238.010213)"><g><path d="M 2.957031 -47.28125 C 2.613281 -47.304688 2.277344 -47.449219 1.9375 -47.589844 C 1.390625 -47.976562 1.203125 -48.570312 1.164062 -49.617188 C 1.117188 -50.546875 1.476562 -52.257812 2.242188 -54.75 C 3.007812 -57.242188 4.207031 -60.859375 5.835938 -65.601562 L 6.566406 -67.632812 C 6.839844 -68.191406 7.222656 -68.628906 7.824219 -68.929688 C 8.308594 -69.242188 8.789062 -69.4375 9.363281 -69.394531 C 9.941406 -69.351562 10.269531 -69.09375 10.589844 -68.722656 C 10.90625 -68.351562 10.875 -67.890625 10.714844 -67.324219 L 9.984375 -65.292969 C 9.410156 -63.828125 8.679688 -61.796875 7.921875 -59.421875 C 7.164062 -57.046875 6.425781 -54.898438 5.933594 -52.96875 C 11.941406 -57.382812 17.425781 -61.027344 22.152344 -63.800781 C 26.878906 -66.578125 30.792969 -67.789062 34.019531 -67.550781 C 36.207031 -67.386719 37.539062 -66.589844 38.136719 -65.269531 C 38.609375 -63.84375 38.71875 -62.214844 38.457031 -60.265625 C 38.195312 -58.316406 37.703125 -56.382812 37.21875 -54.566406 C 37.027344 -53.535156 36.71875 -52.515625 36.523438 -51.488281 C 36.324219 -50.34375 36.261719 -49.539062 36.34375 -49.070312 C 37.050781 -49.246094 38.265625 -49.96875 39.859375 -51.125 C 41.449219 -52.277344 42.917969 -53.328125 44.398438 -54.492188 C 47.855469 -57.359375 51.402344 -59.875 55.050781 -62.152344 C 58.695312 -64.429688 62.015625 -65.453125 65.128906 -65.222656 C 66.625 -65.109375 67.75 -64.675781 68.265625 -63.828125 C 68.78125 -62.976562 69.175781 -62.023438 69.203125 -60.859375 C 69.222656 -59.585938 69.246094 -58.308594 69.148438 -57.042969 C 68.90625 -55.320312 68.890625 -53.585938 69.125 -52.0625 C 69.347656 -50.421875 69.945312 -49.105469 71.136719 -47.972656 C 72.324219 -46.839844 74.355469 -46.109375 77.238281 -45.894531 C 81.613281 -45.566406 86.546875 -46.472656 91.921875 -48.617188 C 97.289062 -50.648438 102.316406 -52.820312 106.769531 -55.039062 C 108.453125 -55.839844 110.007812 -56.53125 111.566406 -57.226562 C 112.167969 -57.53125 112.640625 -57.609375 113.207031 -57.453125 C 113.660156 -57.300781 113.980469 -56.929688 114.175781 -56.453125 C 114.246094 -55.867188 114.210938 -55.40625 113.9375 -54.847656 C 113.550781 -54.296875 113.179688 -53.980469 112.578125 -53.675781 C 111.140625 -53.089844 109.699219 -52.386719 108.140625 -51.691406 C 108.015625 -51.585938 108.015625 -51.585938 107.902344 -51.59375 C 104.777344 -50.089844 101.414062 -48.488281 97.710938 -47.027344 C 94.003906 -45.449219 90.308594 -44.105469 86.527344 -43.113281 C 82.746094 -42.121094 79.238281 -41.6875 75.898438 -41.9375 C 71.867188 -42.238281 69.160156 -43.253906 67.542969 -44.878906 C 65.929688 -46.507812 65.019531 -48.3125 64.832031 -50.414062 C 64.640625 -52.511719 64.554688 -54.488281 64.808594 -56.324219 C 64.945312 -58.167969 64.925781 -59.441406 64.863281 -60.144531 C 64.800781 -60.84375 64.363281 -61.222656 63.789062 -61.265625 C 61.597656 -61.429688 58.980469 -60.46875 55.8125 -58.386719 C 52.527344 -56.316406 49.464844 -54.113281 46.617188 -51.660156 C 44.035156 -49.652344 41.707031 -47.972656 39.761719 -46.726562 C 37.8125 -45.484375 36.148438 -44.914062 34.765625 -45.015625 C 33.382812 -45.121094 32.496094 -45.648438 32.21875 -46.597656 C 31.941406 -47.542969 31.914062 -48.707031 32.140625 -50.195312 C 32.359375 -51.570312 32.585938 -53.058594 33.046875 -54.53125 C 33.855469 -57.597656 34.363281 -59.761719 34.359375 -61.265625 C 34.355469 -62.773438 33.832031 -63.507812 32.679688 -63.59375 C 30.144531 -63.785156 26.570312 -62.429688 21.824219 -59.425781 C 17.082031 -56.417969 11.957031 -52.980469 6.445312 -48.988281 L 4.855469 -47.835938 C 4.730469 -47.726562 4.613281 -47.734375 4.492188 -47.628906 C 3.890625 -47.328125 3.417969 -47.246094 2.957031 -47.28125 Z M 2.957031 -47.28125 "/></g></g></g><g fill="#000000" fill-opacity="1"><g transform="translate(74.800211, 150.303213)"><g><path d="M 6.265625 0.09375 C 5.222656 0.09375 4.285156 -0.132812 3.453125 -0.59375 C 2.617188 -1.0625 1.960938 -1.703125 1.484375 -2.515625 C 1.015625 -3.328125 0.78125 -4.238281 0.78125 -5.25 C 0.78125 -6.257812 1.015625 -7.171875 1.484375 -7.984375 C 1.960938 -8.796875 2.617188 -9.429688 3.453125 -9.890625 C 4.296875 -10.359375 5.238281 -10.59375 6.28125 -10.59375 C 7.0625 -10.59375 7.78125 -10.460938 8.4375 -10.203125 C 9.101562 -9.941406 9.664062 -9.5625 10.125 -9.0625 L 9.421875 -8.359375 C 8.597656 -9.179688 7.5625 -9.59375 6.3125 -9.59375 C 5.476562 -9.59375 4.722656 -9.398438 4.046875 -9.015625 C 3.367188 -8.640625 2.835938 -8.125 2.453125 -7.46875 C 2.066406 -6.8125 1.875 -6.070312 1.875 -5.25 C 1.875 -4.425781 2.066406 -3.6875 2.453125 -3.03125 C 2.835938 -2.375 3.367188 -1.851562 4.046875 -1.46875 C 4.722656 -1.09375 5.476562 -0.90625 6.3125 -0.90625 C 7.570312 -0.90625 8.609375 -1.320312 9.421875 -2.15625 L 10.125 -1.453125 C 9.664062 -0.953125 9.101562 -0.566406 8.4375 -0.296875 C 7.769531 -0.0351562 7.046875 0.09375 6.265625 0.09375 Z M 6.265625 0.09375 "/></g></g></g><g fill="#000000" fill-opacity="1"><g transform="translate(85.585202, 150.303213)"><g><path d="M 1.703125 -10.5 L 2.8125 -10.5 L 2.8125 0 L 1.703125 0 Z M 1.703125 -10.5 "/></g></g></g><g fill="#000000" fill-opacity="1"><g transform="translate(90.115197, 150.303213)"><g><path d="M 3.75 -9.546875 L 0.0625 -9.546875 L 0.0625 -10.5 L 8.546875 -10.5 L 8.546875 -9.546875 L 4.859375 -9.546875 L 4.859375 0 L 3.75 0 Z M 3.75 -9.546875 "/></g></g></g><g fill="#000000" fill-opacity="1"><g transform="translate(98.725193, 150.303213)"><g><path d="M 5.3125 -3.625 L 5.3125 0 L 4.21875 0 L 4.21875 -3.625 L 0.015625 -10.5 L 1.203125 -10.5 L 4.796875 -4.609375 L 8.40625 -10.5 L 9.515625 -10.5 Z M 5.3125 -3.625 "/></g></g></g><g fill="#000000" fill-opacity="1"><g transform="translate(108.250179, 150.303213)"><g/></g></g><g fill="#000000" fill-opacity="1"><g transform="translate(112.180171, 150.303213)"><g><path d="M 9.109375 -5.25 L 10.171875 -5.25 L 10.171875 -1.25 C 9.679688 -0.8125 9.097656 -0.476562 8.421875 -0.25 C 7.753906 -0.0195312 7.050781 0.09375 6.3125 0.09375 C 5.257812 0.09375 4.3125 -0.132812 3.46875 -0.59375 C 2.632812 -1.0625 1.976562 -1.703125 1.5 -2.515625 C 1.019531 -3.328125 0.78125 -4.238281 0.78125 -5.25 C 0.78125 -6.257812 1.019531 -7.171875 1.5 -7.984375 C 1.976562 -8.796875 2.632812 -9.429688 3.46875 -9.890625 C 4.3125 -10.359375 5.265625 -10.59375 6.328125 -10.59375 C 7.128906 -10.59375 7.863281 -10.460938 8.53125 -10.203125 C 9.207031 -9.953125 9.773438 -9.578125 10.234375 -9.078125 L 9.546875 -8.375 C 8.710938 -9.1875 7.65625 -9.59375 6.375 -9.59375 C 5.519531 -9.59375 4.75 -9.40625 4.0625 -9.03125 C 3.382812 -8.65625 2.847656 -8.132812 2.453125 -7.46875 C 2.066406 -6.8125 1.875 -6.070312 1.875 -5.25 C 1.875 -4.425781 2.066406 -3.6875 2.453125 -3.03125 C 2.847656 -2.375 3.382812 -1.851562 4.0625 -1.46875 C 4.738281 -1.09375 5.503906 -0.90625 6.359375 -0.90625 C 7.441406 -0.90625 8.359375 -1.171875 9.109375 -1.703125 Z M 9.109375 -5.25 "/></g></g></g><g fill="#000000" fill-opacity="1"><g transform="translate(123.775164, 150.303213)"><g><path d="M 6.296875 0.09375 C 5.253906 0.09375 4.3125 -0.140625 3.46875 -0.609375 C 2.625 -1.078125 1.960938 -1.710938 1.484375 -2.515625 C 1.015625 -3.328125 0.78125 -4.238281 0.78125 -5.25 C 0.78125 -6.257812 1.015625 -7.164062 1.484375 -7.96875 C 1.960938 -8.78125 2.625 -9.421875 3.46875 -9.890625 C 4.3125 -10.359375 5.253906 -10.59375 6.296875 -10.59375 C 7.335938 -10.59375 8.273438 -10.359375 9.109375 -9.890625 C 9.941406 -9.429688 10.597656 -8.796875 11.078125 -7.984375 C 11.566406 -7.171875 11.8125 -6.257812 11.8125 -5.25 C 11.8125 -4.238281 11.566406 -3.328125 11.078125 -2.515625 C 10.597656 -1.703125 9.941406 -1.0625 9.109375 -0.59375 C 8.273438 -0.132812 7.335938 0.09375 6.296875 0.09375 Z M 6.296875 -0.90625 C 7.128906 -0.90625 7.878906 -1.09375 8.546875 -1.46875 C 9.222656 -1.84375 9.75 -2.359375 10.125 -3.015625 C 10.5 -3.679688 10.6875 -4.425781 10.6875 -5.25 C 10.6875 -6.070312 10.5 -6.8125 10.125 -7.46875 C 9.75 -8.132812 9.222656 -8.65625 8.546875 -9.03125 C 7.878906 -9.40625 7.128906 -9.59375 6.296875 -9.59375 C 5.472656 -9.59375 4.722656 -9.40625 4.046875 -9.03125 C 3.367188 -8.65625 2.835938 -8.132812 2.453125 -7.46875 C 2.066406 -6.8125 1.875 -6.070312 1.875 -5.25 C 1.875 -4.425781 2.066406 -3.679688 2.453125 -3.015625 C 2.835938 -2.359375 3.367188 -1.84375 4.046875 -1.46875 C 4.722656 -1.09375 5.472656 -0.90625 6.296875 -0.90625 Z M 6.296875 -0.90625 "/></g></g></g><g fill="#000000" fill-opacity="1"><g transform="translate(136.360151, 150.303213)"><g><path d="M 10.4375 -10.5 L 5.796875 0 L 4.6875 0 L 0.046875 -10.5 L 1.25 -10.5 L 5.265625 -1.375 L 9.3125 -10.5 Z M 10.4375 -10.5 "/></g></g></g><g fill="#000000" fill-opacity="1"><g transform="translate(146.830144, 150.303213)"><g><path d="M 9.140625 -0.953125 L 9.140625 0 L 1.703125 0 L 1.703125 -10.5 L 8.90625 -10.5 L 8.90625 -9.546875 L 2.8125 -9.546875 L 2.8125 -5.8125 L 8.25 -5.8125 L 8.25 -4.859375 L 2.8125 -4.859375 L 2.8125 -0.953125 Z M 9.140625 -0.953125 "/></g></g></g><g fill="#000000" fill-opacity="1"><g transform="translate(156.865135, 150.303213)"><g><path d="M 8.875 0 L 6.484375 -3.375 C 6.210938 -3.34375 5.929688 -3.328125 5.640625 -3.328125 L 2.8125 -3.328125 L 2.8125 0 L 1.703125 0 L 1.703125 -10.5 L 5.640625 -10.5 C 6.984375 -10.5 8.035156 -10.175781 8.796875 -9.53125 C 9.554688 -8.894531 9.9375 -8.019531 9.9375 -6.90625 C 9.9375 -6.082031 9.726562 -5.382812 9.3125 -4.8125 C 8.894531 -4.25 8.300781 -3.84375 7.53125 -3.59375 L 10.09375 0 Z M 5.609375 -4.28125 C 6.648438 -4.28125 7.441406 -4.507812 7.984375 -4.96875 C 8.535156 -5.425781 8.8125 -6.070312 8.8125 -6.90625 C 8.8125 -7.75 8.535156 -8.398438 7.984375 -8.859375 C 7.441406 -9.316406 6.648438 -9.546875 5.609375 -9.546875 L 2.8125 -9.546875 L 2.8125 -4.28125 Z M 5.609375 -4.28125 "/></g></g></g><g fill="#000000" fill-opacity="1"><g transform="translate(167.710128, 150.303213)"><g><path d="M 10.484375 -10.5 L 10.484375 0 L 9.5625 0 L 2.8125 -8.515625 L 2.8125 0 L 1.703125 0 L 1.703125 -10.5 L 2.625 -10.5 L 9.390625 -1.984375 L 9.390625 -10.5 Z M 10.484375 -10.5 "/></g></g></g><g fill="#000000" fill-opacity="1"><g transform="translate(179.905112, 150.303213)"><g><path d="M 12.609375 -10.5 L 12.609375 0 L 11.546875 0 L 11.546875 -8.40625 L 7.421875 -1.328125 L 6.90625 -1.328125 L 2.78125 -8.359375 L 2.78125 0 L 1.703125 0 L 1.703125 -10.5 L 2.625 -10.5 L 7.1875 -2.71875 L 11.703125 -10.5 Z M 12.609375 -10.5 "/></g></g></g><g fill="#000000" fill-opacity="1"><g transform="translate(194.230093, 150.303213)"><g><path d="M 9.140625 -0.953125 L 9.140625 0 L 1.703125 0 L 1.703125 -10.5 L 8.90625 -10.5 L 8.90625 -9.546875 L 2.8125 -9.546875 L 2.8125 -5.8125 L 8.25 -5.8125 L 8.25 -4.859375 L 2.8125 -4.859375 L 2.8125 -0.953125 Z M 9.140625 -0.953125 "/></g></g></g><g fill="#000000" fill-opacity="1"><g transform="translate(204.265085, 150.303213)"><g><path d="M 10.484375 -10.5 L 10.484375 0 L 9.5625 0 L 2.8125 -8.515625 L 2.8125 0 L 1.703125 0 L 1.703125 -10.5 L 2.625 -10.5 L 9.390625 -1.984375 L 9.390625 -10.5 Z M 10.484375 -10.5 "/></g></g></g><g fill="#000000" fill-opacity="1"><g transform="translate(216.460068, 150.303213)"><g><path d="M 3.75 -9.546875 L 0.0625 -9.546875 L 0.0625 -10.5 L 8.546875 -10.5 L 8.546875 -9.546875 L 4.859375 -9.546875 L 4.859375 0 L 3.75 0 Z M 3.75 -9.546875 "/></g></g></g><g fill="#000000" fill-opacity="1"><g transform="translate(225.070064, 150.303213)"><g/></g></g><g fill="#000000" fill-opacity="1"><g transform="translate(229.000057, 150.303213)"><g><path d="M 6.296875 0.09375 C 5.253906 0.09375 4.3125 -0.140625 3.46875 -0.609375 C 2.625 -1.078125 1.960938 -1.710938 1.484375 -2.515625 C 1.015625 -3.328125 0.78125 -4.238281 0.78125 -5.25 C 0.78125 -6.257812 1.015625 -7.164062 1.484375 -7.96875 C 1.960938 -8.78125 2.625 -9.421875 3.46875 -9.890625 C 4.3125 -10.359375 5.253906 -10.59375 6.296875 -10.59375 C 7.335938 -10.59375 8.273438 -10.359375 9.109375 -9.890625 C 9.941406 -9.429688 10.597656 -8.796875 11.078125 -7.984375 C 11.566406 -7.171875 11.8125 -6.257812 11.8125 -5.25 C 11.8125 -4.238281 11.566406 -3.328125 11.078125 -2.515625 C 10.597656 -1.703125 9.941406 -1.0625 9.109375 -0.59375 C 8.273438 -0.132812 7.335938 0.09375 6.296875 0.09375 Z M 6.296875 -0.90625 C 7.128906 -0.90625 7.878906 -1.09375 8.546875 -1.46875 C 9.222656 -1.84375 9.75 -2.359375 10.125 -3.015625 C 10.5 -3.679688 10.6875 -4.425781 10.6875 -5.25 C 10.6875 -6.070312 10.5 -6.8125 10.125 -7.46875 C 9.75 -8.132812 9.222656 -8.65625 8.546875 -9.03125 C 7.878906 -9.40625 7.128906 -9.59375 6.296875 -9.59375 C 5.472656 -9.59375 4.722656 -9.40625 4.046875 -9.03125 C 3.367188 -8.65625 2.835938 -8.132812 2.453125 -7.46875 C 2.066406 -6.8125 1.875 -6.070312 1.875 -5.25 C 1.875 -4.425781 2.066406 -3.679688 2.453125 -3.015625 C 2.835938 -2.359375 3.367188 -1.84375 4.046875 -1.46875 C 4.722656 -1.09375 5.472656 -0.90625 6.296875 -0.90625 Z M 6.296875 -0.90625 "/></g></g></g><g fill="#000000" fill-opacity="1"><g transform="translate(241.585044, 150.303213)"><g><path d="M 2.8125 -9.546875 L 2.8125 -5.421875 L 8.25 -5.421875 L 8.25 -4.453125 L 2.8125 -4.453125 L 2.8125 0 L 1.703125 0 L 1.703125 -10.5 L 8.90625 -10.5 L 8.90625 -9.546875 Z M 2.8125 -9.546875 "/></g></g></g></svg>