<svg xmlns="http://www.w3.org/2000/svg" xmlns:xlink="http://www.w3.org/1999/xlink" width="1024" zoomAndPan="magnify" viewBox="0 0 768 767.999994" height="1024" preserveAspectRatio="xMidYMid meet" version="1.0"><defs><clipPath id="id1"><path d="M 402.152344 397.4375 L 561.433594 397.4375 L 561.433594 516 L 402.152344 516 Z M 402.152344 397.4375 " clip-rule="nonzero"/></clipPath><clipPath id="id2"><path d="M 443.066406 449 L 491.613281 449 L 491.613281 638.175781 L 443.066406 638.175781 Z M 443.066406 449 " clip-rule="nonzero"/></clipPath><clipPath id="id3"><path d="M 22.472656 570 L 745.472656 570 L 745.472656 706.425781 L 22.472656 706.425781 Z M 22.472656 570 " clip-rule="nonzero"/></clipPath><clipPath id="id4"><path d="M 267.621094 475.722656 L 375.265625 475.722656 L 375.265625 555.902344 L 267.621094 555.902344 Z M 267.621094 475.722656 " clip-rule="nonzero"/></clipPath><clipPath id="id5"><path d="M 314.785156 510.421875 L 347.605469 510.421875 L 347.605469 638.464844 L 314.785156 638.464844 Z M 314.785156 510.421875 " clip-rule="nonzero"/></clipPath><clipPath id="id6"><path d="M 171.367188 68 L 682.117188 68 L 682.117188 617.328125 L 171.367188 617.328125 Z M 171.367188 68 " clip-rule="nonzero"/></clipPath><clipPath id="id7"><path d="M 109.414062 563 L 278.914062 563 L 278.914062 672.972656 L 109.414062 672.972656 Z M 109.414062 563 " clip-rule="nonzero"/></clipPath><clipPath id="id8"><path d="M 267.621094 550.589844 L 426.621094 550.589844 L 426.621094 587 L 267.621094 587 Z M 267.621094 550.589844 " clip-rule="nonzero"/></clipPath><clipPath id="id9"><path d="M 271 589 L 422 589 L 422 672.839844 L 271 672.839844 Z M 271 589 " clip-rule="nonzero"/></clipPath><clipPath id="id10"><path d="M 482 475.722656 L 701.550781 475.722656 L 701.550781 694.722656 L 482 694.722656 Z M 482 475.722656 " clip-rule="nonzero"/></clipPath></defs><path fill="#231f20" d="M 496.972656 449.113281 C 496.972656 453.308594 493.574219 456.703125 489.382812 456.703125 C 485.191406 456.703125 481.792969 453.308594 481.792969 449.113281 C 481.792969 444.921875 485.191406 441.523438 489.382812 441.523438 C 493.574219 441.523438 496.972656 444.921875 496.972656 449.113281 " fill-opacity="1" fill-rule="nonzero"/><g clip-path="url(#id1)"><path fill="#231f20" d="M 491.351562 445.875 C 491.351562 445.875 497.273438 467.242188 483.441406 483.359375 C 483.441406 483.359375 497.722656 476.613281 501.472656 464.617188 C 501.472656 464.617188 517.210938 487.109375 505.96875 515.972656 C 505.96875 515.972656 533.324219 493.105469 518.710938 460.867188 C 518.710938 460.867188 546.070312 479.613281 545.695312 506.972656 C 545.695312 506.972656 565.558594 459.371094 507.09375 439.128906 C 507.09375 439.128906 542.324219 443.253906 561.4375 463.867188 C 561.4375 463.867188 548.695312 427.132812 511.214844 427.882812 C 511.214844 427.882812 520.960938 417.386719 534.078125 418.136719 C 534.078125 418.136719 513.464844 412.515625 499.597656 426.007812 C 499.597656 426.007812 489.101562 386.277344 435.132812 400.519531 C 435.132812 400.519531 474.390625 408.289062 483.441406 430.882812 C 483.441406 430.882812 429.136719 397.519531 413.769531 439.878906 C 413.769531 439.878906 436.257812 427.132812 464.742188 436.128906 C 464.742188 436.128906 416.390625 440.253906 402.152344 477.738281 C 402.152344 477.738281 417.332031 464.652344 440.566406 460.496094 C 464.648438 456.183594 486.480469 444.75 486.480469 444.75 L 491.351562 445.875 " fill-opacity="1" fill-rule="nonzero"/></g><g clip-path="url(#id2)"><path fill="#231f20" d="M 491.316406 450.671875 C 490.507812 451.53125 489.691406 452.414062 488.875 453.328125 C 488.074219 454.230469 487.277344 455.167969 486.480469 456.125 C 483.585938 459.605469 480.722656 463.46875 477.984375 467.660156 C 474.535156 473.027344 471.242188 478.902344 468.398438 485.234375 C 465.515625 491.546875 463.039062 498.289062 461 505.253906 C 459.992188 508.742188 459.105469 512.292969 458.320312 515.871094 C 457.960938 517.667969 457.570312 519.472656 457.273438 521.246094 C 457.117188 522.140625 456.949219 523.015625 456.808594 523.96875 L 456.386719 526.707031 C 455.394531 534.015625 454.804688 541.363281 454.554688 548.605469 C 454.40625 555.867188 454.53125 563.011719 454.9375 569.917969 C 455.410156 576.824219 455.992188 583.5 456.832031 589.8125 C 457.191406 592.964844 457.675781 596.039062 458.09375 599 C 458.535156 601.96875 459.023438 604.835938 459.460938 607.578125 C 459.953125 610.328125 460.425781 612.964844 460.867188 615.464844 C 461.351562 617.96875 461.804688 620.34375 462.234375 622.566406 C 463.128906 627.035156 463.917969 630.921875 464.605469 634.109375 C 464.933594 635.621094 465.222656 636.980469 465.488281 638.175781 L 448.429688 638.175781 C 448.378906 637.785156 448.324219 637.390625 448.265625 636.988281 C 447.804688 633.683594 447.273438 629.664062 446.691406 625.058594 C 446.421875 622.75 446.128906 620.285156 445.824219 617.699219 C 445.550781 615.097656 445.261719 612.367188 444.957031 609.507812 C 444.710938 606.644531 444.425781 603.667969 444.1875 600.574219 C 443.980469 597.480469 443.703125 594.289062 443.5625 590.988281 C 443.171875 584.402344 443.058594 577.414062 443.09375 570.195312 C 443.179688 562.964844 443.585938 555.496094 444.292969 547.929688 C 445.097656 540.371094 446.269531 532.726562 447.855469 525.171875 L 448.496094 522.363281 C 448.695312 521.457031 448.945312 520.492188 449.191406 519.546875 C 449.652344 517.632812 450.1875 515.789062 450.707031 513.9375 C 451.804688 510.246094 452.988281 506.597656 454.308594 503.039062 C 456.957031 495.921875 460.035156 489.113281 463.488281 482.789062 C 466.90625 476.441406 470.75 470.613281 474.695312 465.34375 C 477.726562 461.363281 480.851562 457.710938 483.972656 454.4375 C 484.960938 453.40625 485.9375 452.414062 486.921875 451.457031 C 487.636719 450.757812 488.351562 450.082031 489.058594 449.433594 C 489.777344 449.925781 490.535156 450.328125 491.316406 450.671875 " fill-opacity="1" fill-rule="nonzero"/></g><g clip-path="url(#id3)"><path fill="#1d1a33" d="M 22.472656 706.085938 C 23.445312 706.160156 24.507812 706.214844 25.78125 706.21875 C 26.074219 706.21875 26.410156 706.210938 26.769531 706.203125 L 27.332031 706.183594 L 27.929688 706.121094 L 30.523438 705.824219 L 30.734375 705.800781 C 32.121094 705.773438 33.503906 705.757812 34.886719 705.789062 C 36.71875 705.828125 38.550781 706.171875 40.375 706.125 C 41.148438 706.105469 42.210938 706.019531 43.152344 705.964844 C 45.84375 705.894531 48.351562 705.535156 51.191406 705.6875 C 53.703125 705.820312 55.96875 705.824219 58.195312 705.792969 L 63.699219 705.675781 C 65.945312 705.636719 68.195312 705.566406 70.4375 705.617188 C 72.273438 705.65625 74.105469 706 75.929688 705.953125 C 76.699219 705.933594 77.765625 705.847656 78.703125 705.789062 C 81.394531 705.722656 83.90625 705.363281 86.746094 705.515625 C 89.257812 705.648438 91.523438 705.652344 93.75 705.621094 L 99.253906 705.503906 C 101.5 705.464844 103.75 705.394531 105.992188 705.445312 C 107.828125 705.484375 109.660156 705.828125 111.484375 705.78125 C 112.253906 705.757812 113.320312 705.675781 114.257812 705.617188 C 116.949219 705.546875 119.460938 705.191406 122.296875 705.339844 C 124.808594 705.476562 127.078125 705.480469 129.304688 705.445312 L 134.804688 705.332031 C 137.054688 705.292969 139.300781 705.222656 141.546875 705.269531 C 143.378906 705.3125 145.214844 705.65625 147.039062 705.609375 C 147.808594 705.585938 148.871094 705.503906 149.8125 705.445312 C 152.503906 705.375 155.015625 705.019531 157.851562 705.167969 C 160.363281 705.300781 162.632812 705.308594 164.859375 705.273438 L 170.359375 705.160156 C 172.605469 705.121094 174.855469 705.050781 177.101562 705.097656 C 178.933594 705.140625 180.765625 705.484375 182.59375 705.4375 C 183.363281 705.414062 184.425781 705.328125 185.367188 705.273438 C 188.058594 705.203125 190.566406 704.847656 193.40625 704.996094 C 195.917969 705.128906 198.183594 705.136719 200.410156 705.101562 L 205.914062 704.988281 C 208.160156 704.945312 210.410156 704.875 212.65625 704.925781 C 214.488281 704.964844 216.320312 705.3125 218.144531 705.261719 C 218.917969 705.242188 219.980469 705.15625 220.917969 705.101562 C 223.613281 705.03125 226.121094 704.671875 228.960938 704.824219 C 231.472656 704.957031 233.738281 704.964844 235.964844 704.929688 L 241.46875 704.816406 C 243.714844 704.773438 245.964844 704.703125 248.207031 704.753906 C 250.042969 704.792969 251.875 705.136719 253.699219 705.089844 C 254.46875 705.070312 255.535156 704.984375 256.472656 704.929688 C 259.167969 704.859375 261.675781 704.5 264.511719 704.652344 C 267.023438 704.785156 269.292969 704.789062 271.519531 704.757812 L 277.023438 704.644531 C 279.269531 704.601562 281.519531 704.53125 283.761719 704.582031 C 285.597656 704.621094 287.429688 704.964844 289.253906 704.917969 C 290.023438 704.898438 291.089844 704.8125 292.027344 704.757812 C 294.71875 704.6875 297.230469 704.328125 300.066406 704.480469 C 302.578125 704.613281 304.847656 704.617188 307.074219 704.585938 L 312.574219 704.46875 C 314.824219 704.429688 317.074219 704.359375 319.316406 704.410156 C 321.148438 704.449219 322.984375 704.792969 324.808594 704.746094 C 325.578125 704.722656 326.640625 704.636719 327.582031 704.582031 C 330.273438 704.511719 332.785156 704.15625 335.621094 704.304688 C 338.132812 704.441406 340.402344 704.445312 342.628906 704.410156 L 348.128906 704.296875 C 350.375 704.257812 352.625 704.1875 354.871094 704.234375 C 356.703125 704.277344 358.535156 704.621094 360.363281 704.570312 C 361.132812 704.550781 362.195312 704.464844 363.136719 704.410156 C 365.828125 704.339844 368.335938 703.984375 371.175781 704.132812 C 373.6875 704.265625 375.953125 704.273438 378.179688 704.238281 L 383.683594 704.125 C 385.929688 704.082031 388.179688 704.015625 390.425781 704.0625 C 392.257812 704.105469 394.089844 704.449219 395.914062 704.398438 C 396.683594 704.378906 397.75 704.292969 398.6875 704.238281 C 401.382812 704.167969 403.890625 703.8125 406.730469 703.960938 C 409.242188 704.09375 411.507812 704.101562 413.734375 704.066406 L 419.238281 703.953125 C 421.484375 703.910156 423.734375 703.839844 425.976562 703.890625 C 427.8125 703.933594 429.644531 704.277344 431.46875 704.226562 C 432.238281 704.207031 433.304688 704.121094 434.242188 704.066406 C 436.933594 703.996094 439.445312 703.640625 442.28125 703.789062 C 444.792969 703.921875 447.0625 703.929688 449.289062 703.894531 L 454.789062 703.78125 C 457.039062 703.738281 459.285156 703.667969 461.53125 703.71875 C 463.363281 703.761719 465.199219 704.101562 467.023438 704.054688 C 467.792969 704.035156 468.855469 703.949219 469.796875 703.894531 C 472.488281 703.824219 475 703.464844 477.835938 703.617188 C 480.347656 703.75 482.617188 703.753906 484.84375 703.722656 L 490.34375 703.609375 C 492.589844 703.566406 494.839844 703.496094 497.085938 703.546875 C 498.917969 703.585938 500.75 703.929688 502.578125 703.882812 C 503.347656 703.863281 504.410156 703.777344 505.351562 703.722656 C 508.042969 703.652344 510.550781 703.292969 513.390625 703.445312 C 515.902344 703.578125 518.167969 703.582031 520.394531 703.550781 L 525.898438 703.433594 C 528.144531 703.394531 530.394531 703.324219 532.640625 703.375 C 534.472656 703.414062 536.304688 703.757812 538.128906 703.710938 C 538.902344 703.6875 539.964844 703.605469 540.902344 703.546875 C 543.597656 703.476562 546.105469 703.121094 548.945312 703.269531 C 551.457031 703.40625 553.722656 703.410156 555.949219 703.375 L 561.453125 703.261719 C 563.699219 703.222656 565.949219 703.152344 568.191406 703.199219 C 570.027344 703.242188 571.859375 703.585938 573.683594 703.539062 C 574.453125 703.515625 575.519531 703.433594 576.457031 703.375 C 579.152344 703.304688 581.660156 702.949219 584.496094 703.097656 C 587.011719 703.230469 589.277344 703.238281 591.503906 703.203125 L 597.007812 703.089844 C 599.253906 703.050781 601.503906 702.980469 603.746094 703.027344 C 605.582031 703.070312 607.414062 703.414062 609.238281 703.363281 C 610.007812 703.34375 611.074219 703.257812 612.011719 703.203125 C 614.703125 703.132812 617.214844 702.777344 620.050781 702.925781 C 622.5625 703.058594 624.832031 703.066406 627.058594 703.03125 L 632.5625 702.917969 C 634.808594 702.875 637.058594 702.804688 639.300781 702.855469 C 641.132812 702.894531 642.96875 703.238281 644.792969 703.191406 C 645.5625 703.171875 646.625 703.085938 647.566406 703.03125 C 650.257812 702.960938 652.769531 702.601562 655.605469 702.753906 C 658.117188 702.886719 660.386719 702.890625 662.613281 702.859375 L 668.113281 702.746094 C 670.359375 702.703125 672.609375 702.632812 674.855469 702.683594 C 676.6875 702.722656 678.523438 703.066406 680.347656 703.019531 C 681.117188 703 682.179688 702.914062 683.121094 702.859375 C 685.8125 702.789062 688.324219 702.429688 691.160156 702.582031 C 693.671875 702.714844 695.941406 702.71875 698.167969 702.6875 L 703.667969 702.574219 C 705.914062 702.53125 708.164062 702.460938 710.410156 702.511719 C 712.242188 702.550781 714.074219 702.894531 715.898438 702.847656 C 716.671875 702.828125 717.734375 702.742188 718.675781 702.683594 C 721.367188 702.617188 723.875 702.257812 726.714844 702.410156 C 729.226562 702.542969 731.492188 702.546875 733.71875 702.515625 L 735.085938 702.488281 L 735.46875 702.484375 C 735.628906 702.515625 735.789062 702.535156 735.949219 702.539062 C 736.265625 702.566406 736.585938 702.570312 736.902344 702.554688 C 738.214844 702.488281 739.429688 702.105469 740.542969 701.402344 C 741.886719 700.542969 742.949219 699.414062 743.726562 698.015625 C 744.519531 696.632812 745.023438 695.148438 745.246094 693.570312 C 745.457031 692.277344 745.449219 690.988281 745.226562 689.699219 C 745.097656 688.988281 744.871094 688.304688 744.550781 687.65625 C 744.210938 686.972656 743.773438 686.359375 743.230469 685.820312 C 742.363281 685.003906 741.40625 684.308594 740.363281 683.734375 C 739.015625 682.96875 737.597656 682.378906 736.105469 681.964844 C 734.699219 681.546875 733.308594 681.214844 731.890625 680.785156 C 729.375 680.027344 727.148438 679.625 725.085938 679.109375 L 722.535156 678.503906 C 721.691406 678.277344 720.839844 678.019531 719.972656 677.769531 C 718.929688 677.488281 717.910156 677.121094 716.886719 676.765625 L 715.355469 676.214844 L 713.863281 675.566406 C 712.230469 674.871094 710.785156 673.78125 709.179688 673.074219 L 706.726562 671.988281 C 704.394531 670.839844 702.105469 669.898438 699.835938 668.304688 C 697.839844 666.875 696.003906 665.632812 694.207031 664.394531 C 693.464844 663.902344 692.742188 663.382812 692.007812 662.867188 C 691.269531 662.355469 690.527344 661.84375 689.789062 661.289062 C 688.003906 659.984375 686.21875 658.65625 684.523438 657.226562 C 683.144531 656.042969 681.960938 654.632812 680.546875 653.5 C 679.949219 653.023438 679.085938 652.410156 678.335938 651.847656 C 676.253906 650.171875 674.113281 648.796875 672.039062 646.839844 C 670.203125 645.109375 668.460938 643.632812 666.699219 642.230469 C 665.269531 641.074219 663.804688 639.984375 662.296875 638.824219 L 659.550781 636.78125 C 658.625 636.113281 657.703125 635.433594 656.804688 634.730469 C 655.304688 633.621094 653.992188 632.230469 652.394531 631.246094 C 651.722656 630.832031 650.785156 630.269531 649.929688 629.820312 C 647.550781 628.398438 645.167969 627.375 642.660156 625.871094 C 641.554688 625.203125 640.484375 624.585938 639.402344 624.070312 C 638.324219 623.546875 637.289062 623.015625 636.214844 622.597656 L 633.59375 621.53125 L 630.886719 620.570312 C 629.800781 620.15625 628.671875 619.859375 627.5625 619.507812 L 625.890625 618.988281 L 624.191406 618.496094 C 622.34375 617.988281 620.535156 617.214844 618.632812 616.953125 C 617.835938 616.824219 616.714844 616.761719 615.734375 616.679688 C 612.925781 616.398438 610.296875 616.5625 607.347656 616.378906 C 604.902344 616.238281 602.46875 616.304688 600.035156 616.582031 C 598.136719 616.78125 596.273438 617.097656 594.34375 617.484375 C 592.03125 617.945312 589.746094 618.570312 587.46875 619.242188 C 585.613281 619.796875 583.648438 620.136719 581.875 621.007812 C 581.496094 621.179688 581.0625 621.414062 580.613281 621.675781 C 580.164062 621.941406 579.6875 622.191406 579.261719 622.472656 C 578.015625 623.199219 576.828125 624.007812 575.703125 624.90625 L 574.847656 625.570312 L 574 626.273438 L 573.675781 626.535156 C 573.59375 626.59375 573.515625 626.664062 573.4375 626.730469 C 573.277344 626.863281 573.117188 626.988281 572.949219 627.109375 C 571.875 627.914062 571 628.898438 570.320312 630.058594 L 569.554688 628.722656 L 569.179688 628.039062 C 569.039062 627.816406 568.898438 627.585938 568.757812 627.355469 C 568.414062 626.808594 568.082031 626.238281 567.710938 625.683594 L 566.890625 624.445312 L 565.949219 622.972656 C 565.441406 622.167969 564.933594 621.367188 564.445312 620.542969 C 563.980469 619.710938 563.445312 618.925781 562.839844 618.1875 C 562.316406 617.578125 561.554688 616.773438 560.898438 616.054688 C 559.027344 613.976562 557.035156 612.289062 555.066406 610.132812 C 554.246094 609.199219 553.378906 608.3125 552.464844 607.46875 C 551.59375 606.652344 550.753906 605.847656 549.855469 605.136719 L 547.679688 603.355469 C 546.960938 602.75 546.179688 602.21875 545.414062 601.628906 C 543.59375 600.207031 541.660156 598.949219 539.820312 597.5625 C 538.289062 596.480469 536.914062 595.140625 535.304688 594.179688 C 534.617188 593.785156 533.644531 593.289062 532.792969 592.835938 C 531.609375 592.128906 530.382812 591.589844 529.171875 590.992188 C 528.566406 590.699219 527.957031 590.394531 527.351562 590.066406 C 526.734375 589.75 526.109375 589.425781 525.488281 589.058594 C 524.375 588.417969 523.320312 587.792969 522.253906 587.28125 C 521.191406 586.757812 520.15625 586.265625 519.121094 585.792969 C 517.421875 585.027344 515.707031 584.367188 513.945312 583.621094 L 507.53125 581.160156 C 506.660156 580.820312 505.816406 580.410156 504.96875 580.007812 C 504.125 579.605469 503.257812 579.261719 502.367188 578.980469 C 501.613281 578.753906 500.558594 578.484375 499.632812 578.242188 C 496.984375 577.515625 494.449219 577.097656 491.695312 576.230469 C 491.085938 576.03125 490.492188 575.84375 489.90625 575.667969 C 489.320312 575.5 488.738281 575.351562 488.167969 575.207031 C 487.023438 574.917969 485.910156 574.65625 484.804688 574.410156 C 482.980469 574.054688 481.179688 573.714844 479.300781 573.378906 L 472.539062 572.269531 C 471.621094 572.109375 470.710938 571.871094 469.804688 571.648438 C 468.898438 571.421875 467.980469 571.261719 467.054688 571.160156 C 466.273438 571.085938 465.1875 571.03125 464.230469 570.972656 C 461.496094 570.785156 458.929688 570.863281 456.0625 570.550781 C 453.699219 570.277344 451.328125 570.125 448.949219 570.101562 C 447.089844 570.089844 445.257812 570.132812 443.351562 570.148438 L 439.917969 570.277344 L 438.207031 570.324219 L 436.5 570.40625 C 434.640625 570.46875 432.761719 570.234375 430.914062 570.390625 C 430.132812 570.457031 429.0625 570.601562 428.113281 570.714844 C 425.398438 571.054688 422.902344 571.691406 420.027344 571.84375 C 417.65625 571.980469 415.304688 572.269531 412.972656 572.714844 C 411.148438 573.027344 409.347656 573.339844 407.476562 573.6875 C 405.25 574.175781 403.027344 574.691406 400.789062 575.09375 C 399.871094 575.253906 398.941406 575.34375 398.011719 575.445312 C 397.089844 575.558594 396.179688 575.730469 395.28125 575.96875 C 394.523438 576.175781 393.496094 576.515625 392.585938 576.800781 C 391.269531 577.160156 390.015625 577.582031 388.738281 577.976562 C 387.460938 578.375 386.1875 578.84375 384.78125 579.160156 C 382.308594 579.753906 380.089844 580.367188 377.945312 581.070312 L 372.699219 582.957031 L 369.484375 584.109375 C 368.414062 584.492188 367.363281 584.929688 366.289062 585.304688 C 364.542969 585.925781 362.683594 586.269531 360.976562 586.972656 C 360.613281 587.121094 360.191406 587.3125 359.746094 587.515625 C 359.304688 587.71875 358.855469 587.960938 358.425781 588.171875 C 355.945312 589.304688 353.75 590.628906 351.046875 591.617188 C 348.679688 592.546875 346.609375 593.539062 344.582031 594.523438 L 342.105469 595.75 C 341.277344 596.160156 340.472656 596.625 339.632812 597.070312 C 337.628906 598.144531 335.640625 599.25 333.597656 600.242188 C 331.941406 601.074219 330.171875 601.703125 328.582031 602.640625 C 327.910156 603.039062 327.011719 603.636719 326.210938 604.152344 C 325.625 604.5 325.058594 604.855469 324.5 605.214844 L 322.855469 606.359375 C 321.730469 607.152344 320.566406 607.878906 319.359375 608.535156 C 318.238281 609.136719 317.183594 609.730469 316.175781 610.328125 C 315.183594 610.957031 314.234375 611.582031 313.300781 612.207031 L 308.699219 615.335938 C 306.839844 616.640625 305.027344 618.015625 303.132812 619.261719 C 302.359375 619.777344 301.542969 620.226562 300.734375 620.6875 C 299.929688 621.148438 299.160156 621.660156 298.425781 622.222656 C 297.8125 622.707031 297 623.414062 296.269531 624.027344 C 295.199219 624.867188 294.210938 625.738281 293.183594 626.59375 C 292.160156 627.5 291.089844 628.347656 289.976562 629.140625 C 287.902344 630.578125 286.113281 631.972656 284.375 633.359375 L 280.101562 636.796875 C 278.351562 638.1875 276.605469 639.578125 274.785156 640.859375 C 273.292969 641.898438 271.625 642.671875 270.183594 643.742188 C 269.570312 644.1875 268.757812 644.851562 268.023438 645.421875 C 265.875 646.960938 263.988281 648.601562 261.535156 649.917969 C 259.359375 651.074219 257.433594 652.15625 255.53125 653.199219 C 253.972656 654.050781 252.429688 654.871094 250.792969 655.671875 C 248.84375 656.640625 246.84375 657.492188 244.796875 658.222656 C 244.375 658.367188 243.953125 658.496094 243.527344 658.609375 L 242.230469 658.910156 C 241.375 659.117188 240.515625 659.292969 239.683594 659.5625 C 238.988281 659.804688 238.023438 660.136719 237.167969 660.414062 C 234.691406 661.09375 232.386719 661.933594 229.664062 662.117188 C 229.066406 662.175781 228.480469 662.210938 227.90625 662.242188 L 226.222656 662.363281 C 225.113281 662.394531 224.046875 662.503906 222.984375 662.519531 L 221.679688 662.558594 L 221.027344 662.582031 L 220.375 662.570312 L 217.726562 662.519531 C 217.460938 662.511719 217.191406 662.511719 216.921875 662.5 L 216.113281 662.433594 L 214.5 662.300781 C 213.960938 662.25 213.421875 662.210938 212.882812 662.144531 L 211.277344 661.882812 C 210.402344 661.71875 209.542969 661.511719 208.6875 661.261719 C 207.839844 660.988281 206.980469 660.773438 206.105469 660.605469 C 205.367188 660.496094 204.339844 660.335938 203.433594 660.175781 C 202.144531 659.910156 200.882812 659.726562 199.605469 659.457031 C 198.285156 659.214844 196.984375 658.878906 195.710938 658.453125 C 193.355469 657.652344 191.191406 657 189.050781 656.402344 L 183.71875 654.945312 C 181.539062 654.34375 179.316406 653.8125 177.132812 653.167969 C 176.234375 652.914062 175.347656 652.601562 174.460938 652.292969 C 173.578125 651.960938 172.679688 651.707031 171.753906 651.523438 C 170.976562 651.375 169.886719 651.230469 168.929688 651.085938 C 167.5625 650.859375 166.210938 650.757812 164.859375 650.601562 C 163.5 650.460938 162.113281 650.382812 160.660156 650.125 C 160.019531 650 159.378906 649.949219 158.757812 649.890625 L 156.917969 649.734375 C 155.738281 649.644531 154.554688 649.621094 153.371094 649.667969 C 152.421875 649.691406 151.472656 649.691406 150.519531 649.746094 L 147.640625 650.003906 C 147.058594 650.054688 146.472656 650.097656 145.890625 650.164062 L 144.15625 650.429688 L 142.417969 650.675781 C 141.835938 650.753906 141.257812 650.820312 140.683594 650.933594 C 138.816406 651.277344 136.847656 651.238281 135.03125 651.800781 C 134.257812 652.019531 133.207031 652.375 132.277344 652.675781 C 130.957031 653.125 129.703125 653.628906 128.425781 654.113281 C 127.160156 654.613281 125.898438 655.164062 124.496094 655.585938 C 123.871094 655.769531 123.277344 655.980469 122.703125 656.207031 L 121.011719 656.867188 L 119.378906 657.539062 L 117.820312 658.273438 L 115.300781 659.492188 L 112.796875 660.8125 L 111.277344 661.609375 L 109.777344 662.445312 C 108.78125 663 107.765625 663.535156 106.761719 664.066406 C 105.128906 664.953125 103.316406 665.542969 101.761719 666.53125 C 101.101562 666.945312 100.214844 667.5625 99.425781 668.09375 C 97.132812 669.554688 95.15625 671.171875 92.65625 672.546875 C 90.4375 673.757812 88.511719 674.960938 86.636719 676.164062 L 82.03125 679.15625 C 80.148438 680.371094 78.269531 681.582031 76.335938 682.6875 C 74.75 683.578125 73.007812 684.195312 71.472656 685.128906 C 70.820312 685.519531 69.945312 686.101562 69.164062 686.601562 L 65.832031 688.640625 C 65.273438 688.976562 64.714844 689.316406 64.128906 689.628906 C 63.539062 689.933594 62.929688 690.226562 62.285156 690.496094 L 59.046875 691.90625 C 58.007812 692.351562 57.015625 692.820312 56.023438 693.261719 L 53.578125 694.300781 L 52.347656 694.828125 L 51.082031 695.304688 C 50.058594 695.675781 49.042969 696.085938 48.015625 696.433594 C 46.976562 696.757812 45.9375 697.074219 44.890625 697.359375 C 44.027344 697.570312 43.15625 697.722656 42.273438 697.816406 C 41.398438 697.925781 40.53125 698.085938 39.683594 698.277344 C 38.964844 698.425781 37.976562 698.683594 37.097656 698.898438 C 35.839844 699.195312 34.613281 699.398438 33.367188 699.628906 C 32.742188 699.734375 32.113281 699.851562 31.464844 699.921875 C 30.820312 699.96875 30.15625 699.992188 29.476562 699.988281 C 27.765625 700.027344 26.179688 699.957031 24.640625 699.921875 C 23.976562 699.867188 23.316406 699.816406 22.609375 699.773438 L 22.625 702.933594 Z M 22.472656 706.085938 " fill-opacity="1" fill-rule="nonzero"/></g><path fill="#231f20" d="M 58.164062 699.59375 C 60.4375 699.726562 62.21875 699.992188 65.171875 699.933594 C 68.839844 699.855469 72.503906 699.257812 76.167969 699.46875 L 76.796875 699.507812 C 78.351562 699.554688 79.910156 699.796875 81.476562 699.828125 C 83.71875 699.878906 88.308594 699.398438 90.558594 699.355469 C 91.769531 699.332031 92.785156 699.367188 93.71875 699.417969 C 95.988281 699.554688 97.769531 699.820312 100.726562 699.757812 C 104.390625 699.683594 108.058594 699.082031 111.71875 699.296875 L 112.347656 699.335938 C 113.902344 699.378906 115.464844 699.621094 117.027344 699.65625 C 119.273438 699.707031 123.863281 699.222656 126.109375 699.179688 C 127.324219 699.15625 128.335938 699.191406 129.269531 699.246094 C 131.539062 699.378906 133.324219 699.644531 136.277344 699.582031 C 139.945312 699.507812 143.609375 698.90625 147.273438 699.121094 L 147.898438 699.160156 C 149.457031 699.207031 151.015625 699.445312 152.578125 699.480469 C 154.824219 699.53125 159.414062 699.050781 161.660156 699.003906 C 162.875 698.984375 163.890625 699.015625 164.820312 699.070312 C 167.09375 699.203125 168.875 699.46875 171.828125 699.410156 C 175.496094 699.335938 179.160156 698.734375 182.824219 698.945312 L 183.453125 698.984375 C 185.007812 699.03125 186.566406 699.273438 188.132812 699.308594 C 190.375 699.355469 194.964844 698.875 197.214844 698.832031 C 198.429688 698.808594 199.441406 698.84375 200.375 698.894531 C 202.644531 699.03125 204.425781 699.296875 207.382812 699.234375 C 211.046875 699.160156 214.714844 698.558594 218.378906 698.773438 L 219.003906 698.8125 C 220.558594 698.855469 222.121094 699.097656 223.683594 699.132812 C 225.929688 699.183594 230.519531 698.699219 232.765625 698.65625 C 233.980469 698.636719 234.992188 698.667969 235.925781 698.722656 C 238.195312 698.855469 239.980469 699.121094 242.933594 699.058594 C 246.601562 698.984375 250.265625 698.382812 253.929688 698.597656 L 254.558594 698.636719 C 256.113281 698.683594 257.675781 698.921875 259.238281 698.957031 C 261.480469 699.007812 266.070312 698.527344 268.320312 698.484375 C 269.535156 698.460938 270.546875 698.492188 271.480469 698.546875 C 273.75 698.679688 275.53125 698.945312 278.488281 698.886719 C 282.152344 698.8125 285.820312 698.210938 289.484375 698.425781 L 290.109375 698.464844 C 291.664062 698.507812 293.226562 698.75 294.789062 698.785156 C 297.035156 698.832031 301.625 698.351562 303.871094 698.308594 C 305.085938 698.285156 306.097656 698.320312 307.03125 698.375 C 309.300781 698.507812 311.085938 698.773438 314.039062 698.710938 C 317.707031 698.636719 321.371094 698.035156 325.035156 698.25 L 325.664062 698.289062 C 327.21875 698.332031 328.777344 698.574219 330.34375 698.609375 C 332.585938 698.660156 337.175781 698.175781 339.425781 698.132812 C 340.636719 698.113281 341.652344 698.144531 342.585938 698.199219 C 344.855469 698.332031 346.636719 698.597656 349.59375 698.539062 C 353.257812 698.464844 356.925781 697.863281 360.585938 698.074219 L 361.214844 698.113281 C 362.769531 698.160156 364.332031 698.402344 365.894531 698.4375 C 368.140625 698.484375 372.730469 698.003906 374.976562 697.960938 C 376.191406 697.9375 377.203125 697.972656 378.136719 698.027344 C 380.40625 698.160156 382.191406 698.425781 385.144531 698.363281 C 388.808594 698.289062 392.476562 697.6875 396.140625 697.902344 L 396.765625 697.941406 C 398.324219 697.984375 399.882812 698.226562 401.445312 698.261719 C 403.691406 698.3125 408.28125 697.828125 410.527344 697.785156 C 411.742188 697.765625 412.757812 697.796875 413.6875 697.851562 C 415.960938 697.984375 417.742188 698.25 420.695312 698.191406 C 424.363281 698.113281 428.027344 697.515625 431.691406 697.726562 L 432.320312 697.765625 C 433.875 697.8125 435.433594 698.054688 437 698.085938 C 439.242188 698.136719 443.832031 697.65625 446.082031 697.613281 C 447.296875 697.589844 448.308594 697.621094 449.242188 697.675781 C 451.511719 697.808594 453.292969 698.074219 456.25 698.015625 C 459.914062 697.941406 463.582031 697.339844 467.246094 697.554688 L 467.871094 697.59375 C 469.425781 697.636719 470.988281 697.878906 472.550781 697.914062 C 474.796875 697.964844 479.386719 697.480469 481.632812 697.4375 C 482.847656 697.414062 483.859375 697.449219 484.792969 697.503906 C 487.0625 697.636719 488.847656 697.902344 491.800781 697.839844 C 495.46875 697.765625 499.132812 697.164062 502.796875 697.378906 L 503.425781 697.417969 C 504.980469 697.464844 506.539062 697.703125 508.105469 697.738281 C 510.347656 697.789062 514.9375 697.304688 517.1875 697.261719 C 518.398438 697.242188 519.414062 697.273438 520.347656 697.328125 C 522.617188 697.460938 524.398438 697.726562 527.355469 697.667969 C 531.019531 697.589844 534.683594 696.992188 538.347656 697.203125 L 538.976562 697.242188 C 540.53125 697.289062 542.089844 697.53125 543.65625 697.5625 C 545.898438 697.613281 550.492188 697.132812 552.738281 697.089844 C 553.953125 697.066406 554.964844 697.097656 555.898438 697.15625 C 558.167969 697.289062 559.953125 697.554688 562.90625 697.492188 C 566.570312 697.417969 570.238281 696.816406 573.902344 697.03125 L 574.527344 697.070312 C 576.085938 697.113281 577.644531 697.355469 579.207031 697.390625 C 581.453125 697.441406 586.042969 696.957031 588.289062 696.914062 C 589.503906 696.890625 590.519531 696.925781 591.453125 696.980469 C 593.722656 697.113281 595.503906 697.378906 598.457031 697.316406 C 602.125 697.242188 605.789062 696.640625 609.453125 696.855469 L 610.082031 696.894531 C 611.636719 696.941406 613.195312 697.179688 614.761719 697.214844 C 617.003906 697.265625 621.59375 696.785156 623.84375 696.742188 C 625.058594 696.71875 626.070312 696.75 627.003906 696.804688 C 629.273438 696.9375 631.054688 697.203125 634.011719 697.144531 C 637.675781 697.070312 641.34375 696.46875 645.007812 696.683594 L 645.632812 696.722656 C 647.191406 696.765625 648.75 697.007812 650.3125 697.042969 C 652.558594 697.089844 657.148438 696.609375 659.394531 696.566406 C 660.609375 696.542969 661.621094 696.578125 662.554688 696.632812 C 664.828125 696.765625 666.609375 697.03125 669.5625 696.96875 C 673.230469 696.894531 676.894531 696.292969 680.558594 696.507812 L 681.1875 696.546875 C 682.742188 696.589844 684.300781 696.832031 685.867188 696.867188 C 688.109375 696.917969 692.699219 696.4375 694.949219 696.390625 C 696.164062 696.371094 697.175781 696.402344 698.109375 696.457031 C 700.378906 696.589844 702.160156 696.855469 705.117188 696.796875 C 708.78125 696.722656 712.449219 696.121094 716.113281 696.332031 L 716.738281 696.375 C 718.292969 696.417969 719.855469 696.660156 721.417969 696.695312 C 723.664062 696.742188 728.253906 696.261719 730.5 696.21875 C 731.714844 696.195312 732.726562 696.230469 733.660156 696.285156 C 734.222656 696.316406 734.777344 696.359375 735.285156 696.402344 C 735.59375 696.5 735.910156 696.5625 736.234375 696.589844 C 737.050781 696.617188 737.726562 696.316406 738.257812 695.695312 C 738.988281 694.808594 739.324219 693.792969 739.257812 692.644531 C 739.253906 692.128906 739.167969 691.632812 739 691.144531 C 738.933594 690.976562 738.855469 690.8125 738.769531 690.652344 C 738.726562 690.585938 738.695312 690.515625 738.648438 690.460938 C 738.628906 690.429688 738.609375 690.398438 738.59375 690.367188 L 738.433594 690.195312 L 738.148438 689.863281 C 737.257812 688.976562 736.246094 688.261719 735.117188 687.714844 C 733.824219 687.207031 732.496094 686.847656 731.128906 686.636719 C 729.535156 686.347656 727.859375 686.128906 726.753906 685.90625 C 725.691406 685.703125 724.640625 685.4375 723.609375 685.105469 C 722.484375 684.734375 721.480469 684.398438 720.410156 684.003906 C 719.34375 683.585938 718.183594 683.191406 716.722656 682.734375 C 713.125 681.558594 709.382812 680.609375 706.058594 678.75 L 705.5 678.414062 C 704.097656 677.621094 702.769531 676.695312 701.40625 675.847656 C 699.398438 674.71875 695.179688 672.589844 693.242188 671.335938 C 692.199219 670.660156 691.378906 670.027344 690.625 669.4375 C 689.703125 668.730469 688.949219 668.019531 688.089844 667.300781 C 687.234375 666.582031 686.308594 665.808594 685.101562 664.917969 C 682.121094 662.703125 678.855469 660.824219 676.171875 658.28125 C 676.023438 658.136719 675.867188 657.988281 675.714844 657.84375 C 674.546875 656.800781 673.507812 655.597656 672.339844 654.554688 C 670.664062 653.054688 666.871094 650.449219 665.136719 649.058594 C 664.199219 648.292969 663.445312 647.640625 662.765625 647.007812 L 660.410156 644.832031 C 659.507812 643.980469 658.554688 643.1875 657.554688 642.453125 C 656.113281 641.363281 654.554688 640.4375 653.035156 639.46875 C 651.492188 638.542969 649.988281 637.570312 648.554688 636.507812 L 648.066406 636.132812 C 647.453125 635.683594 646.851562 635.214844 646.242188 634.761719 C 645.632812 634.304688 645.027344 633.835938 644.390625 633.414062 C 643.117188 632.667969 641.808594 631.996094 640.460938 631.398438 L 638.25 630.417969 C 637.566406 630.097656 636.921875 629.863281 636.429688 629.628906 C 635.367188 629.144531 634.507812 628.671875 633.699219 628.285156 C 632.714844 627.800781 631.867188 627.292969 630.90625 626.84375 C 629.8125 626.324219 628.6875 625.875 627.539062 625.488281 C 625.851562 624.984375 624.140625 624.578125 622.40625 624.273438 C 620.6875 623.972656 618.972656 623.703125 617.273438 623.3125 C 617.085938 623.261719 616.886719 623.214844 616.691406 623.175781 C 615.238281 622.914062 613.785156 622.476562 612.292969 622.320312 C 611.640625 622.25 610.984375 622.21875 610.328125 622.226562 C 609.582031 622.214844 608.761719 622.246094 607.941406 622.289062 C 607.125 622.316406 606.304688 622.40625 605.5625 622.449219 C 604.820312 622.519531 604.144531 622.582031 603.613281 622.609375 C 602.460938 622.699219 601.496094 622.71875 600.609375 622.757812 C 598.453125 622.84375 596.710938 622.78125 593.964844 623.410156 C 592.277344 623.835938 590.632812 624.386719 589.027344 625.058594 C 587.4375 625.726562 585.875 626.398438 584.296875 627.015625 C 584.117188 627.078125 583.933594 627.148438 583.757812 627.226562 C 583.105469 627.523438 582.421875 627.765625 581.769531 628.066406 C 581.101562 628.339844 580.457031 628.660156 579.835938 629.027344 C 579.304688 629.363281 578.796875 629.726562 578.3125 630.121094 C 578.039062 630.351562 577.765625 630.601562 577.480469 630.851562 C 577.398438 630.925781 577.382812 630.945312 577.191406 631.105469 C 577.082031 631.210938 576.96875 631.304688 576.863281 631.417969 L 576.226562 632.101562 L 575.582031 632.789062 L 575.257812 633.132812 C 575.152344 633.25 575.058594 633.40625 574.957031 633.539062 L 573.78125 635.15625 L 571.773438 638.050781 L 570.171875 640.335938 C 570.058594 640.5 569.949219 640.660156 569.835938 640.816406 L 569.675781 641.050781 L 569.59375 641.164062 C 569.582031 641.179688 569.566406 641.207031 569.554688 641.210938 L 569.523438 641.191406 L 569.039062 640.910156 C 568.296875 639.292969 567.660156 637.816406 566.984375 636.304688 C 566.234375 634.644531 565.402344 633.027344 564.488281 631.453125 L 563.507812 629.773438 C 563.332031 629.5 563.164062 629.242188 562.964844 628.964844 L 562.675781 628.558594 L 562.476562 628.292969 L 560.859375 626.191406 C 560.296875 625.507812 559.71875 624.835938 559.179688 624.140625 C 558.640625 623.441406 558.132812 622.726562 557.601562 622.019531 L 557.25 621.523438 C 556.796875 620.929688 556.375 620.300781 555.953125 619.667969 C 555.523438 619.042969 555.058594 618.449219 554.566406 617.871094 C 554.214844 617.457031 553.738281 616.957031 553.207031 616.421875 C 552.660156 615.890625 552.027344 615.351562 551.40625 614.800781 C 550.777344 614.257812 550.167969 613.695312 549.578125 613.21875 C 548.992188 612.738281 548.460938 612.300781 548.054688 611.9375 C 547.179688 611.152344 546.488281 610.457031 545.820312 609.839844 C 545.023438 609.078125 544.335938 608.359375 543.570312 607.609375 C 542.667969 606.78125 541.722656 606.003906 540.742188 605.273438 C 540.023438 604.738281 539.277344 604.242188 538.503906 603.785156 L 536.207031 602.386719 C 534.640625 601.523438 533.121094 600.578125 531.65625 599.550781 L 531.152344 599.199219 C 529.875 598.378906 528.714844 597.339844 527.386719 596.578125 C 525.507812 595.417969 521.308594 593.738281 519.308594 592.828125 C 518.226562 592.335938 517.347656 591.878906 516.546875 591.433594 C 515.574219 590.886719 514.691406 590.425781 513.738281 589.914062 C 512.652344 589.324219 511.53125 588.8125 510.375 588.378906 C 508.6875 587.742188 506.960938 587.210938 505.21875 586.734375 C 504.351562 586.488281 503.488281 586.230469 502.636719 585.945312 C 501.777344 585.675781 500.921875 585.398438 500.085938 585.058594 L 499.515625 584.828125 C 498.085938 584.285156 496.6875 583.617188 495.222656 583.140625 C 494.695312 582.972656 494.023438 582.789062 493.277344 582.605469 C 492.527344 582.433594 491.699219 582.273438 490.871094 582.113281 L 488.464844 581.636719 C 487.707031 581.496094 487.019531 581.375 486.480469 581.257812 C 485.316406 581 484.355469 580.734375 483.472656 580.464844 C 482.398438 580.167969 481.441406 579.867188 480.398438 579.566406 C 479.878906 579.417969 479.332031 579.269531 478.742188 579.125 C 478.148438 578.992188 477.5 578.875 476.78125 578.757812 C 475.890625 578.613281 474.992188 578.503906 474.09375 578.402344 C 473.195312 578.304688 472.289062 578.261719 471.386719 578.183594 C 470.488281 578.109375 469.589844 578.035156 468.695312 577.925781 C 467.796875 577.835938 466.90625 577.726562 466.019531 577.5625 L 465.410156 577.445312 C 463.902344 577.195312 462.394531 576.816406 460.863281 576.636719 C 460.316406 576.570312 459.621094 576.523438 458.851562 576.488281 C 458.082031 576.460938 457.234375 576.472656 456.394531 576.472656 L 451.917969 576.484375 C 450.726562 576.460938 449.730469 576.386719 448.816406 576.296875 L 445.628906 576.011719 C 444.394531 575.898438 443.160156 575.867188 441.925781 575.921875 C 438.3125 575.996094 434.734375 576.898438 431.121094 576.871094 L 430.5 576.867188 C 429.734375 576.894531 428.960938 576.847656 428.1875 576.847656 C 427.417969 576.859375 426.644531 576.875 425.875 576.9375 C 424.773438 577.03125 423.105469 577.316406 421.441406 577.613281 L 419.019531 578.042969 C 418.257812 578.167969 417.578125 578.34375 417.03125 578.429688 C 415.851562 578.632812 414.859375 578.75 413.941406 578.835938 C 412.824219 578.941406 411.820312 578.996094 410.734375 579.085938 C 410.191406 579.128906 409.628906 579.183594 409.023438 579.257812 C 408.417969 579.332031 407.773438 579.480469 407.0625 579.632812 C 405.292969 580.027344 403.546875 580.546875 401.800781 581.03125 C 400.929688 581.277344 400.054688 581.507812 399.175781 581.714844 C 398.304688 581.957031 397.425781 582.171875 396.535156 582.335938 L 395.925781 582.445312 C 394.425781 582.769531 392.867188 582.90625 391.359375 583.242188 C 390.816406 583.367188 390.140625 583.542969 389.40625 583.78125 C 388.675781 584.035156 387.878906 584.328125 387.085938 584.621094 C 385.496094 585.210938 383.914062 585.808594 382.855469 586.136719 C 381.714844 586.503906 380.734375 586.726562 379.847656 586.96875 C 377.679688 587.558594 375.925781 587.871094 373.175781 588.863281 C 372.324219 589.175781 371.472656 589.496094 370.644531 589.871094 L 368.175781 591.03125 C 366.546875 591.828125 364.867188 592.511719 363.144531 593.082031 L 362.550781 593.269531 C 361.105469 593.785156 359.601562 594.199219 358.164062 594.765625 C 357.128906 595.179688 355.617188 595.941406 354.109375 596.710938 L 352.988281 597.292969 L 351.933594 597.882812 C 351.253906 598.257812 350.636719 598.589844 350.136719 598.832031 C 349.0625 599.363281 348.140625 599.761719 347.28125 600.101562 C 346.238281 600.523438 345.285156 600.855469 344.269531 601.253906 C 343.265625 601.683594 342.203125 602.175781 340.914062 602.871094 C 339.316406 603.738281 337.78125 604.71875 336.230469 605.664062 C 334.722656 606.675781 333.15625 607.59375 331.535156 608.417969 L 330.976562 608.683594 C 329.617188 609.40625 328.125 609.917969 326.785156 610.691406 C 324.855469 611.804688 321.203125 614.554688 319.339844 615.753906 C 318.34375 616.429688 317.484375 616.949219 316.679688 617.40625 C 315.703125 617.960938 314.804688 618.425781 313.851562 618.953125 C 313.375 619.21875 312.882812 619.5 312.359375 619.820312 C 311.78125 620.160156 311.226562 620.53125 310.691406 620.929688 C 309.21875 622 307.824219 623.175781 306.414062 624.320312 C 305.707031 624.894531 304.996094 625.460938 304.265625 626 C 303.550781 626.558594 302.824219 627.101562 302.0625 627.597656 L 301.542969 627.933594 C 300.28125 628.820312 298.890625 629.546875 297.628906 630.445312 C 295.804688 631.722656 292.496094 634.933594 290.742188 636.34375 C 289.792969 637.109375 288.976562 637.707031 288.203125 638.238281 C 286.316406 639.527344 284.738281 640.414062 282.40625 642.261719 C 279.511719 644.550781 276.878906 647.242188 273.695312 649.195312 L 273.148438 649.527344 C 271.824219 650.390625 270.367188 651.074219 269.019531 651.921875 C 267.101562 653.144531 263.351562 656.011719 261.339844 657.160156 C 260.40625 657.710938 259.445312 658.214844 258.457031 658.664062 C 256.320312 659.628906 254.570312 660.222656 251.8125 661.507812 C 248.394531 663.097656 245.007812 664.996094 241.261719 665.855469 L 240.625 666 C 239.832031 666.191406 239.023438 666.320312 238.222656 666.457031 C 237.417969 666.59375 236.601562 666.675781 235.804688 666.839844 L 233.71875 667.289062 L 232.480469 667.582031 L 231.175781 667.851562 C 229.625 668.195312 228.058594 668.453125 226.476562 668.628906 C 225.371094 668.722656 224.265625 668.753906 223.160156 668.710938 C 221.96875 668.660156 220.90625 668.59375 219.761719 668.449219 C 219.191406 668.386719 218.597656 668.332031 217.953125 668.285156 C 217.308594 668.242188 216.617188 668.226562 215.855469 668.144531 C 214.902344 668.070312 213.953125 668.023438 213 667.992188 L 212.28125 667.964844 L 211.570312 667.910156 L 210.148438 667.796875 C 209.203125 667.707031 208.242188 667.65625 207.3125 667.484375 C 206.382812 667.324219 205.457031 667.136719 204.539062 666.902344 L 203.914062 666.734375 C 202.371094 666.332031 200.867188 665.734375 199.332031 665.316406 C 198.238281 664.996094 196.523438 664.671875 194.828125 664.320312 C 193.132812 663.964844 191.429688 663.617188 190.34375 663.3125 C 189.167969 662.988281 188.203125 662.667969 187.320312 662.347656 C 185.160156 661.464844 182.957031 660.699219 180.714844 660.054688 C 178.953125 659.570312 177.167969 659.285156 175.390625 658.929688 C 174.5 658.78125 173.617188 658.621094 172.738281 658.429688 C 172.300781 658.335938 171.863281 658.234375 171.429688 658.125 C 170.996094 658.023438 170.5625 657.917969 170.132812 657.800781 L 169.542969 657.632812 C 168.808594 657.457031 168.082031 657.222656 167.351562 657.003906 C 166.617188 656.808594 165.882812 656.613281 165.140625 656.46875 C 162.992188 655.988281 158.542969 656.027344 156.417969 655.984375 C 155.261719 655.898438 154.292969 655.933594 153.402344 655.863281 C 152.863281 655.832031 152.347656 655.789062 151.835938 655.746094 L 151.070312 655.683594 C 150.816406 655.667969 150.554688 655.675781 150.292969 655.671875 C 149.238281 655.671875 148.097656 655.695312 146.683594 655.824219 C 145.8125 655.949219 144.945312 656.125 144.082031 656.300781 C 143.21875 656.488281 142.355469 656.644531 141.507812 656.90625 C 139.804688 657.382812 138.101562 657.769531 136.378906 658.144531 L 135.78125 658.257812 C 135.054688 658.429688 134.300781 658.515625 133.566406 658.679688 C 132.828125 658.84375 132.082031 658.996094 131.355469 659.207031 C 130.71875 659.390625 130.09375 659.609375 129.480469 659.863281 C 128.78125 660.160156 128.019531 660.5 127.261719 660.839844 C 125.738281 661.492188 124.269531 662.300781 123.265625 662.722656 C 122.726562 662.964844 122.21875 663.15625 121.75 663.355469 C 121.285156 663.558594 120.84375 663.738281 120.417969 663.902344 C 119.386719 664.3125 118.4375 664.613281 117.441406 665.023438 C 116.441406 665.433594 115.378906 665.914062 114.09375 666.589844 C 112.515625 667.464844 111 668.457031 109.484375 669.449219 C 107.984375 670.46875 106.433594 671.398438 104.832031 672.246094 L 104.277344 672.527344 C 102.925781 673.265625 101.46875 673.851562 100.125 674.636719 C 98.1875 675.738281 94.554688 678.5625 92.667969 679.789062 C 91.648438 680.449219 90.773438 680.957031 89.949219 681.40625 C 87.949219 682.496094 86.292969 683.214844 83.789062 684.820312 C 82.246094 685.824219 80.734375 686.910156 79.222656 687.980469 C 77.710938 689.0625 76.125 690.027344 74.472656 690.882812 L 73.894531 691.15625 C 72.492188 691.882812 71.003906 692.464844 69.570312 693.160156 C 67.546875 694.195312 63.578125 696.738281 61.46875 697.695312 C 60.335938 698.222656 59.378906 698.632812 58.472656 698.953125 C 57.847656 699.164062 57.257812 699.351562 56.671875 699.535156 C 57.191406 699.546875 57.691406 699.566406 58.164062 699.59375 Z M 58.164062 699.59375 " fill-opacity="1" fill-rule="nonzero"/><path fill="#231f20" d="M 311.164062 510.65625 C 311.164062 513.492188 313.460938 515.789062 316.292969 515.789062 C 319.128906 515.789062 321.425781 513.492188 321.425781 510.65625 C 321.425781 507.820312 319.128906 505.523438 316.292969 505.523438 C 313.460938 505.523438 311.164062 507.820312 311.164062 510.65625 " fill-opacity="1" fill-rule="nonzero"/><g clip-path="url(#id4)"><path fill="#231f20" d="M 314.964844 508.464844 C 314.964844 508.464844 310.960938 522.910156 320.308594 533.808594 C 320.308594 533.808594 310.65625 529.246094 308.121094 521.136719 C 308.121094 521.136719 297.480469 536.339844 305.082031 555.851562 C 305.082031 555.851562 286.585938 540.394531 296.46875 518.601562 C 296.46875 518.601562 277.972656 531.273438 278.226562 549.769531 C 278.226562 549.769531 264.796875 517.589844 304.324219 503.90625 C 304.324219 503.90625 280.503906 506.695312 267.582031 520.628906 C 267.582031 520.628906 276.199219 495.796875 301.535156 496.304688 C 301.535156 496.304688 294.949219 489.210938 286.078125 489.714844 C 286.078125 489.714844 300.015625 485.914062 309.390625 495.039062 C 309.390625 495.039062 316.484375 468.175781 352.96875 477.804688 C 352.96875 477.804688 326.429688 483.058594 320.308594 498.332031 C 320.308594 498.332031 357.023438 475.777344 367.414062 504.414062 C 367.414062 504.414062 352.210938 495.796875 332.953125 501.878906 C 332.953125 501.878906 365.640625 504.667969 375.265625 530.007812 C 375.265625 530.007812 365.003906 521.160156 349.296875 518.351562 C 333.015625 515.4375 318.257812 507.707031 318.257812 507.707031 L 314.964844 508.464844 " fill-opacity="1" fill-rule="nonzero"/></g><g clip-path="url(#id5)"><path fill="#231f20" d="M 314.988281 511.710938 C 315.535156 512.292969 316.085938 512.886719 316.636719 513.503906 C 317.179688 514.117188 317.71875 514.75 318.257812 515.394531 C 320.214844 517.75 322.148438 520.359375 324 523.191406 C 326.332031 526.824219 328.558594 530.792969 330.480469 535.074219 C 332.429688 539.339844 334.105469 543.898438 335.484375 548.609375 C 336.164062 550.964844 336.765625 553.367188 337.292969 555.785156 C 337.535156 557 337.800781 558.21875 338 559.417969 C 338.109375 560.023438 338.222656 560.617188 338.316406 561.257812 L 338.601562 563.109375 C 339.269531 568.050781 339.671875 573.015625 339.839844 577.914062 C 339.941406 582.820312 339.855469 587.652344 339.582031 592.320312 C 339.261719 596.992188 338.867188 601.5 338.300781 605.769531 C 338.058594 607.902344 337.730469 609.976562 337.449219 611.980469 C 337.148438 613.988281 336.820312 615.925781 336.523438 617.78125 C 336.191406 619.636719 335.871094 621.421875 335.574219 623.113281 C 335.242188 624.804688 334.941406 626.410156 334.648438 627.914062 C 334.042969 630.933594 333.507812 633.558594 333.046875 635.714844 C 332.824219 636.738281 332.628906 637.65625 332.449219 638.464844 L 343.980469 638.464844 C 344.015625 638.203125 344.050781 637.933594 344.089844 637.664062 C 344.402344 635.425781 344.761719 632.710938 345.15625 629.597656 C 345.339844 628.035156 345.535156 626.371094 345.742188 624.621094 C 345.929688 622.863281 346.121094 621.015625 346.328125 619.085938 C 346.496094 617.148438 346.6875 615.136719 346.847656 613.046875 C 346.988281 610.953125 347.175781 608.796875 347.269531 606.566406 C 347.535156 602.113281 347.613281 597.390625 347.589844 592.507812 C 347.527344 587.621094 347.253906 582.574219 346.777344 577.457031 C 346.234375 572.347656 345.441406 567.179688 344.367188 562.074219 L 343.933594 560.175781 C 343.800781 559.558594 343.632812 558.910156 343.464844 558.269531 C 343.152344 556.976562 342.792969 555.730469 342.441406 554.476562 C 341.699219 551.984375 340.898438 549.515625 340.007812 547.109375 C 338.214844 542.300781 336.136719 537.695312 333.800781 533.421875 C 331.488281 529.128906 328.890625 525.191406 326.222656 521.625 C 324.175781 518.9375 322.0625 516.46875 319.953125 514.257812 C 319.285156 513.558594 318.625 512.886719 317.957031 512.238281 C 317.476562 511.765625 316.992188 511.3125 316.515625 510.871094 C 316.027344 511.203125 315.515625 511.476562 314.988281 511.710938 " fill-opacity="1" fill-rule="nonzero"/></g><g clip-path="url(#id6)"><path fill="#211d1d" d="M 443.164062 556.113281 C 348.089844 466.820312 294.136719 312.136719 345.152344 189.589844 C 346.972656 190.90625 349.132812 191.804688 351.515625 192.113281 C 354.253906 192.46875 356.898438 192 359.226562 190.914062 C 376.898438 209.476562 407.011719 243.070312 415.835938 266.234375 C 408.175781 268.25 400.144531 270.875 391.722656 274.203125 L 416.996094 276.339844 L 408.5 283.976562 L 434.160156 282.359375 C 435.09375 286.707031 435.613281 291.320312 435.429688 296.03125 L 438.492188 282.085938 L 441.050781 281.921875 C 441.527344 283.082031 442.074219 284.476562 442.65625 286.0625 L 441.183594 287.289062 L 443.074219 287.222656 C 445.769531 294.796875 448.988281 306.160156 449.257812 317.703125 C 431.875 326.625 415.945312 341.140625 406.144531 364.484375 L 426.308594 347.429688 L 428.699219 355.070312 L 453.191406 335.558594 L 454.902344 344.378906 C 454.902344 344.378906 503.609375 315.804688 532.917969 311.929688 C 532.984375 311.980469 533.042969 312.042969 533.109375 312.09375 C 533.425781 312.339844 533.757812 312.5625 534.089844 312.773438 C 461.273438 367.398438 435.246094 467.09375 443.164062 556.113281 Z M 421.40625 253.539062 C 421.40625 253.539062 424.253906 257.386719 427.386719 263.589844 C 424.742188 264.105469 422.050781 264.6875 419.304688 265.355469 Z M 471.980469 286.128906 L 464.558594 291.921875 C 464.558594 291.921875 500.328125 284.464844 528.503906 304.472656 C 528.542969 304.691406 528.578125 304.914062 528.632812 305.128906 C 514.59375 303.660156 481.683594 302.273438 452.15625 316.269531 C 453.734375 309.847656 454.871094 299.945312 452.632812 286.859375 Z M 569.351562 297.625 C 569.59375 296.226562 569.582031 294.800781 569.34375 293.414062 C 581.933594 287.121094 598.761719 281.074219 613.347656 283.855469 L 603.984375 280.644531 C 603.984375 280.644531 617.121094 277.058594 625.777344 278.957031 L 615.609375 273.035156 C 615.609375 273.035156 634.929688 273.058594 645.945312 274.984375 L 634.878906 268.535156 C 634.878906 268.535156 648.597656 263.492188 663.25 268.433594 C 663.25 268.433594 605.351562 226.207031 562.742188 284.480469 C 562.160156 284.191406 561.5625 283.957031 560.957031 283.761719 C 569.699219 257.464844 575.589844 211.769531 524.59375 187.152344 L 535.675781 208.234375 L 526.171875 204.496094 L 540.964844 226.152344 L 531.933594 223.136719 C 531.933594 223.136719 541.234375 260.304688 545.117188 286.964844 C 532.132812 257.660156 504.375 211.277344 459.976562 215.738281 L 481.5625 231.914062 L 472.222656 230.964844 L 497.089844 247.699219 L 490.734375 247.027344 C 490.734375 247.027344 517.273438 263.75 539.398438 290.019531 C 537.6875 290.199219 536.019531 290.71875 534.507812 291.589844 C 521.625 278.660156 492.722656 257.300781 444.839844 261.160156 C 439.925781 249.660156 432.585938 236.722656 421.84375 222.433594 C 407.203125 203.617188 383.046875 191.195312 365.941406 184.230469 C 366.289062 183.492188 366.566406 182.710938 366.785156 181.898438 C 386.964844 180.753906 414.253906 182.902344 438.554688 197.390625 L 428.476562 185.996094 C 428.476562 185.996094 443.921875 190.816406 452.632812 201.332031 L 447.757812 188.625 C 447.757812 188.625 471.855469 196.511719 484.5625 211.84375 C 484.5625 211.84375 454.777344 143.9375 362.808594 168.0625 C 362.433594 167.714844 362.042969 167.386719 361.632812 167.082031 C 375.375 160.042969 400.96875 151.414062 448.101562 145.726562 L 420.496094 140.875 C 420.496094 140.875 440.671875 138.269531 463.761719 133.925781 L 437.066406 131.425781 C 437.066406 131.425781 466.917969 119.847656 488.027344 121.660156 C 488.027344 121.660156 420.628906 90.230469 357.921875 150.886719 C 357.363281 149.386719 356.539062 148.003906 355.519531 146.789062 C 364.214844 133.503906 377.179688 118.046875 392.980469 112.472656 L 382.023438 114.664062 C 382.023438 114.664062 392.796875 103.707031 402.3125 100.648438 L 389.035156 100.648438 C 389.035156 100.648438 407.878906 89.691406 419.710938 85.3125 L 405.261719 85.3125 C 405.261719 85.3125 415.765625 72.609375 432.855469 69.101562 C 432.855469 69.101562 352.421875 60.824219 344.007812 141.835938 C 343.277344 141.878906 342.5625 141.984375 341.859375 142.144531 C 335.4375 111.542969 315.210938 63.65625 251.511719 68.628906 L 274.296875 82.882812 L 262.902344 84.640625 L 289.636719 97.34375 L 279.117188 99.535156 C 279.117188 99.535156 309.304688 130.480469 328.238281 154.265625 C 298.929688 133.066406 245.511719 103.628906 204.769531 133.195312 L 235.007812 136.695312 L 225.367188 141.082031 L 259.105469 143.273438 L 252.535156 146.21875 C 252.535156 146.21875 287.90625 147.449219 324.402344 160.492188 C 322.835938 161.628906 321.507812 163.089844 320.527344 164.792969 C 294.121094 157.78125 231.785156 152.320312 171.46875 228.941406 L 197.320312 216.679688 L 193.375 228.941406 L 230.625 203.972656 L 227.117188 213.609375 L 256.476562 194.992188 L 252.535156 204.851562 C 252.535156 204.851562 283.160156 177.265625 322 180.761719 C 322.160156 180.953125 322.320312 181.148438 322.492188 181.332031 C 298.886719 191.972656 226.671875 231.175781 236.832031 308.757812 L 246.796875 280.683594 L 253.472656 286.769531 L 266.253906 253.839844 L 272.9375 261.46875 C 272.9375 261.46875 302.597656 208.746094 328.511719 187.15625 C 283.089844 323.824219 318.363281 481.746094 414.371094 587.828125 C 397.085938 601.054688 380.597656 608.53125 368.878906 612.640625 C 366.332031 613.53125 366.988281 617.304688 369.6875 617.304688 L 519.964844 617.304688 C 522.589844 617.304688 523.304688 613.714844 520.890625 612.6875 C 502.480469 604.847656 492.535156 592.117188 487.445312 582.863281 C 484.789062 578.050781 480.5 574.476562 475.488281 572.691406 C 466.585938 535.816406 464.589844 497.101562 469.84375 459.613281 C 476.664062 410.910156 498.796875 350.5 541.910156 320.570312 C 542.664062 322.78125 544.054688 324.804688 546.039062 326.335938 C 547.976562 327.832031 550.210938 328.652344 552.484375 328.855469 C 558.285156 353.308594 567.539062 398.664062 560.648438 418.089844 L 572.136719 404.558594 C 572.136719 404.558594 574.546875 426.640625 563.898438 443.355469 L 574.9375 431.363281 C 574.9375 431.363281 573.042969 455.425781 561.394531 471.558594 C 561.394531 471.558594 594.796875 452.820312 586.355469 380.9375 C 583.546875 359.992188 570.597656 339.703125 560.609375 326.738281 C 561.203125 326.324219 561.765625 325.847656 562.292969 325.328125 C 578.257812 333.457031 598.195312 347.277344 610.335938 369.214844 L 607.699219 355.996094 C 607.699219 355.996094 617.382812 366.574219 619.359375 378.515625 L 621.292969 366.613281 C 621.292969 366.613281 636.230469 383.402344 639.117188 400.8125 C 639.117188 400.8125 646.621094 335.523438 565.421875 312.957031 C 565.292969 312.523438 565.140625 312.101562 564.964844 311.679688 C 578.628906 312.421875 602.082031 317.234375 640.714844 333.914062 L 621.742188 317.878906 C 621.742188 317.878906 638.355469 324.886719 657.972656 331.863281 L 638.644531 318.035156 C 638.644531 318.035156 666.671875 322.492188 682.03125 333.296875 C 682.03125 333.296875 644.453125 279.160156 569.351562 297.625 " fill-opacity="1" fill-rule="nonzero"/></g><path fill="#231f20" d="M 212.492188 559.722656 L 207.066406 554.285156 L 187.734375 492.414062 L 187.734375 482.347656 L 190.152344 482.347656 L 190.152344 479.367188 L 187.734375 479.367188 L 187.734375 476.066406 L 184.75 476.066406 L 184.75 479.367188 L 182.332031 479.367188 L 182.332031 482.347656 L 184.75 482.347656 L 184.75 492.414062 L 165.414062 554.285156 L 159.992188 559.722656 L 212.492188 559.722656 " fill-opacity="1" fill-rule="nonzero"/><g clip-path="url(#id7)"><path fill="#231f20" d="M 262.078125 651.308594 L 256.601562 651.308594 L 256.601562 645.816406 L 262.078125 645.816406 Z M 262.078125 665 L 256.601562 665 L 256.601562 659.515625 L 262.078125 659.515625 Z M 249.777344 651.308594 L 244.292969 651.308594 L 244.292969 645.816406 L 249.777344 645.816406 Z M 249.777344 665 L 244.292969 665 L 244.292969 659.515625 L 249.777344 659.515625 Z M 237.472656 651.308594 L 231.996094 651.308594 L 231.996094 645.816406 L 237.472656 645.816406 Z M 237.472656 665 L 231.996094 665 L 231.996094 659.515625 L 237.472656 659.515625 Z M 140.027344 654.871094 L 135.363281 654.871094 L 135.363281 650.203125 L 140.027344 650.203125 Z M 140.027344 665 L 135.363281 665 L 135.363281 660.324219 L 140.027344 660.324219 Z M 124.875 654.871094 L 120.210938 654.871094 L 120.210938 650.203125 L 124.875 650.203125 Z M 124.875 665 L 120.210938 665 L 120.210938 660.324219 L 124.875 660.324219 Z M 176.601562 572.535156 C 176.601562 570.917969 177.914062 569.601562 179.523438 569.601562 C 181.152344 569.601562 182.457031 570.917969 182.457031 572.535156 L 182.457031 581.226562 L 176.601562 581.226562 Z M 190.027344 572.535156 C 190.027344 570.917969 191.339844 569.601562 192.957031 569.601562 C 194.578125 569.601562 195.890625 570.917969 195.890625 572.535156 L 195.890625 581.226562 L 190.027344 581.226562 Z M 175.511719 634.355469 L 175.511719 637.578125 L 172.535156 637.578125 L 172.535156 634.355469 Z M 180.160156 634.355469 L 180.160156 637.578125 L 177.175781 637.578125 L 177.175781 634.355469 Z M 184.804688 634.355469 L 184.804688 637.578125 L 181.828125 637.578125 L 181.828125 634.355469 Z M 190.65625 634.355469 L 190.65625 637.578125 L 187.679688 637.578125 L 187.679688 634.355469 Z M 195.304688 634.355469 L 195.304688 637.578125 L 192.328125 637.578125 L 192.328125 634.355469 Z M 199.957031 634.355469 L 199.957031 637.578125 L 196.972656 637.578125 L 196.972656 634.355469 Z M 193.816406 602.398438 C 192.078125 602.398438 190.65625 603.808594 190.65625 605.554688 L 190.65625 619.972656 L 187.679688 619.972656 L 187.679688 605.554688 C 187.679688 602.167969 190.433594 599.410156 193.816406 599.410156 C 197.203125 599.410156 199.957031 602.167969 199.957031 605.554688 L 199.957031 619.972656 L 196.972656 619.972656 L 196.972656 605.554688 C 196.972656 603.808594 195.558594 602.398438 193.816406 602.398438 Z M 201.167969 625.839844 L 201.167969 628.824219 L 171.324219 628.824219 L 171.324219 625.839844 Z M 178.671875 602.398438 C 176.933594 602.398438 175.511719 603.808594 175.511719 605.554688 L 175.511719 619.972656 L 172.535156 619.972656 L 172.535156 605.554688 C 172.535156 602.167969 175.289062 599.410156 178.671875 599.410156 C 182.058594 599.410156 184.804688 602.167969 184.804688 605.554688 L 184.804688 619.972656 L 181.828125 619.972656 L 181.828125 605.554688 C 181.828125 603.808594 180.414062 602.398438 178.671875 602.398438 Z M 267.917969 622.582031 L 226.15625 622.582031 L 215.054688 635.492188 L 221.707031 635.492188 L 221.707031 665 L 210.734375 665 L 210.734375 643.699219 L 207.066406 643.699219 L 207.066406 591.664062 L 212.492188 591.664062 L 207.066406 586.789062 L 207.066406 563.691406 L 165.414062 563.691406 L 165.414062 586.789062 L 159.992188 591.664062 L 165.414062 591.664062 L 165.414062 643.699219 L 161.757812 643.699219 L 161.757812 665 L 150.730469 665 L 150.730469 643.523438 L 130.125 628.410156 L 109.507812 643.523438 L 109.507812 672.628906 L 272.367188 672.628906 L 272.367188 635.492188 L 279.019531 635.492188 L 267.917969 622.582031 " fill-opacity="1" fill-rule="nonzero"/></g><g clip-path="url(#id8)"><path fill="#231f20" d="M 340.5625 569.207031 L 343.035156 569.207031 L 343.035156 577.515625 L 351.207031 577.515625 L 351.207031 569.207031 L 353.679688 569.207031 L 353.679688 579.984375 L 340.5625 579.984375 Z M 337.660156 564.691406 L 347.121094 558.453125 L 356.578125 564.691406 L 355.214844 566.75 L 347.121094 561.410156 L 339.027344 566.75 Z M 312.28125 566.75 L 304.191406 561.410156 L 296.097656 566.75 L 294.730469 564.691406 L 304.191406 558.453125 L 313.648438 564.691406 Z M 310.75 579.984375 L 297.632812 579.984375 L 297.632812 569.207031 L 300.101562 569.207031 L 300.101562 577.515625 L 308.277344 577.515625 L 308.277344 569.207031 L 310.75 569.207031 Z M 390.050781 558.453125 L 399.507812 564.691406 L 398.144531 566.75 L 390.050781 561.410156 L 381.957031 566.75 L 380.589844 564.691406 Z M 396.609375 579.984375 L 383.492188 579.984375 L 383.492188 569.207031 L 385.964844 569.207031 L 385.964844 577.515625 L 394.136719 577.515625 L 394.136719 569.207031 L 396.609375 569.207031 Z M 348.289062 586.242188 L 426.621094 586.242188 C 420 581.5 414.242188 575.664062 409.597656 568.988281 L 396.8125 550.625 L 297.425781 550.625 L 284.644531 568.988281 C 280 575.664062 274.242188 581.5 267.621094 586.242188 L 348.289062 586.242188 " fill-opacity="1" fill-rule="nonzero"/></g><g clip-path="url(#id9)"><path fill="#231f20" d="M 271.792969 672.800781 L 289.910156 672.800781 L 289.910156 663.894531 L 285.332031 663.894531 L 285.332031 623.671875 L 287.835938 621.171875 L 287.835938 618.535156 L 281.707031 618.535156 C 281.707031 615.144531 282.613281 611.757812 283.316406 609.65625 C 283.953125 607.726562 284.894531 605.910156 286.222656 604.371094 C 291.65625 598.070312 300.117188 598.609375 300.117188 598.609375 C 300.117188 598.609375 308.582031 598.070312 314.015625 604.371094 C 315.339844 605.910156 316.28125 607.726562 316.921875 609.65625 C 317.625 611.757812 318.53125 615.144531 318.53125 618.535156 L 313.007812 618.535156 L 313.007812 621.171875 L 315.511719 623.671875 L 315.511719 663.894531 L 310.933594 663.894531 L 310.933594 672.800781 L 336.035156 672.800781 L 336.035156 663.894531 L 331.457031 663.894531 L 331.457031 623.671875 L 333.960938 621.171875 L 333.960938 618.535156 L 328.4375 618.535156 C 328.4375 615.144531 329.351562 611.757812 330.046875 609.65625 C 330.6875 607.726562 331.628906 605.910156 332.953125 604.371094 C 338.386719 598.070312 346.851562 598.609375 346.851562 598.609375 C 346.851562 598.609375 355.320312 598.070312 360.753906 604.371094 C 362.074219 605.910156 363.019531 607.726562 363.660156 609.65625 C 364.355469 611.757812 365.269531 615.144531 365.269531 618.535156 L 359.746094 618.535156 L 359.746094 621.171875 L 362.25 623.671875 L 362.25 663.894531 L 357.671875 663.894531 L 357.671875 672.800781 L 382.769531 672.800781 L 382.769531 663.894531 L 378.195312 663.894531 L 378.195312 623.671875 L 380.691406 621.171875 L 380.691406 618.535156 L 375.175781 618.535156 C 375.175781 615.144531 376.082031 611.757812 376.785156 609.65625 C 377.421875 607.726562 378.367188 605.910156 379.691406 604.371094 C 385.125 598.070312 393.585938 598.609375 393.585938 598.609375 C 393.585938 598.609375 402.050781 598.070312 407.484375 604.371094 C 408.808594 605.910156 409.75 607.726562 410.390625 609.65625 C 411.09375 611.757812 412 615.144531 412 618.535156 L 405.871094 618.535156 L 405.871094 621.171875 L 408.371094 623.671875 L 408.371094 663.894531 L 403.796875 663.894531 L 403.796875 672.800781 L 421.90625 672.800781 L 421.90625 589.53125 L 271.792969 589.53125 L 271.792969 672.800781 " fill-opacity="1" fill-rule="nonzero"/></g><g clip-path="url(#id10)"><path fill="#211d1d" d="M 678.800781 586.679688 C 678.832031 585.625 679.628906 584.378906 680.574219 583.90625 L 699.695312 574.328125 C 700.636719 573.855469 701.273438 572.621094 701.105469 571.578125 L 696.695312 551.253906 C 696.414062 550.238281 695.324219 549.355469 694.273438 549.285156 L 672.523438 547.878906 C 671.472656 547.8125 670.222656 546.988281 669.746094 546.046875 L 666.789062 540.609375 C 666.261719 539.699219 666.265625 538.210938 666.804688 537.308594 L 677.785156 518.785156 C 678.324219 517.878906 678.195312 516.492188 677.5 515.699219 L 662.703125 500.605469 C 661.925781 499.898438 660.535156 499.734375 659.613281 500.246094 L 640.691406 510.75 C 639.769531 511.261719 638.28125 511.234375 637.378906 510.6875 L 632.265625 507.78125 C 631.335938 507.289062 630.542969 506.023438 630.507812 504.96875 L 629.726562 483.273438 C 629.691406 482.21875 628.835938 481.109375 627.828125 480.804688 L 607.332031 475.898438 C 606.292969 475.710938 605.039062 476.316406 604.542969 477.246094 L 594.363281 496.195312 C 593.867188 497.121094 593.023438 497.875 592.488281 497.863281 L 592.003906 497.863281 C 589.050781 497.863281 585.164062 498.15625 585.164062 498.15625 C 584.117188 498.234375 582.765625 497.59375 582.164062 496.726562 L 569.722656 478.8125 C 569.121094 477.945312 567.800781 477.46875 566.785156 477.75 L 547.210938 484.355469 C 546.234375 484.746094 545.5 485.929688 545.582031 486.980469 L 547.25 508.273438 C 547.335938 509.324219 546.675781 510.648438 545.792969 511.222656 L 539.570312 515.53125 C 538.722656 516.160156 537.234375 516.34375 536.261719 515.941406 L 516.109375 507.59375 C 515.132812 507.191406 513.761719 507.503906 513.058594 508.285156 L 500.496094 523.863281 C 499.878906 524.71875 499.898438 526.105469 500.535156 526.941406 L 513.386719 543.875 C 514.023438 544.714844 514.183594 546.179688 513.738281 547.136719 L 510.246094 555.507812 C 509.875 556.492188 508.726562 557.453125 507.6875 557.640625 L 486.304688 561.503906 C 485.269531 561.6875 484.285156 562.695312 484.121094 563.734375 C 484.121094 563.734375 482.027344 576.886719 482.027344 584.738281 L 482.027344 584.777344 C 482.027344 584.824219 482.839844 585.160156 483.828125 585.519531 L 503.78125 592.808594 C 504.773438 593.171875 505.703125 594.320312 505.851562 595.363281 L 507.722656 605.5625 C 507.957031 606.589844 507.515625 608.019531 506.746094 608.738281 L 490.941406 623.457031 C 490.171875 624.175781 489.894531 625.546875 490.328125 626.507812 L 498.949219 643.222656 C 499.480469 644.132812 500.753906 644.6875 501.78125 644.457031 L 522.597656 639.78125 C 523.625 639.546875 525.035156 640.003906 525.734375 640.796875 L 533.40625 648.777344 C 534.167969 649.503906 534.578125 650.933594 534.316406 651.953125 L 529.019531 672.730469 C 528.761719 673.75 529.273438 675.046875 530.164062 675.609375 L 546.414062 684.769531 C 547.355469 685.238281 548.734375 685.011719 549.472656 684.261719 L 564.546875 668.976562 C 565.285156 668.226562 566.722656 667.835938 567.738281 668.109375 L 578.457031 670.492188 C 579.492188 670.679688 580.613281 671.648438 580.945312 672.648438 L 587.671875 692.847656 C 588.003906 693.847656 589.136719 694.691406 590.191406 694.71875 C 590.191406 694.71875 590.753906 694.734375 592.003906 694.734375 C 598.46875 694.734375 609.0625 693.351562 609.0625 693.351562 C 610.105469 693.214844 611.136719 692.257812 611.355469 691.226562 L 615.804688 670.066406 C 616.023438 669.035156 617.015625 667.917969 618.015625 667.585938 L 627.445312 664.007812 C 628.414062 663.59375 629.875 663.796875 630.695312 664.457031 L 647.238281 677.785156 C 648.058594 678.449219 649.441406 678.503906 650.3125 677.914062 L 665.839844 666.136719 C 666.644531 665.453125 666.996094 664.09375 666.621094 663.109375 L 658.875 642.769531 C 658.503906 641.785156 658.730469 640.300781 659.382812 639.476562 L 664.507812 632.488281 C 665.101562 631.617188 666.441406 630.996094 667.488281 631.109375 L 688.652344 633.378906 C 689.699219 633.492188 690.898438 632.792969 691.3125 631.828125 L 698.246094 612.863281 C 698.554688 611.859375 698.113281 610.523438 697.265625 609.898438 L 679.703125 596.933594 C 678.855469 596.308594 678.242188 594.9375 678.34375 593.890625 Z M 591.722656 649.25 C 556.324219 649.25 527.632812 620.550781 527.632812 585.148438 C 527.632812 549.742188 556.324219 521.042969 591.722656 521.042969 C 627.117188 521.042969 655.8125 549.742188 655.8125 585.148438 C 655.8125 620.550781 627.117188 649.25 591.722656 649.25 Z M 591.722656 649.25 " fill-opacity="1" fill-rule="nonzero"/></g></svg>