<svg xmlns="http://www.w3.org/2000/svg" xmlns:xlink="http://www.w3.org/1999/xlink" width="500" zoomAndPan="magnify" viewBox="0 0 375 374.999991" height="500" preserveAspectRatio="xMidYMid meet" version="1.0"><defs><g/><clipPath id="id1"><path d="M 42 180 L 274 180 L 274 230 L 42 230 Z M 42 180 " clip-rule="nonzero"/></clipPath><clipPath id="id2"><path d="M 42.601562 181.246094 L 171.832031 77.457031 L 273.742188 204.347656 L 144.511719 308.136719 Z M 42.601562 181.246094 " clip-rule="nonzero"/></clipPath><clipPath id="id3"><path d="M 42.601562 181.246094 L 171.832031 77.457031 L 273.742188 204.347656 L 144.511719 308.136719 Z M 42.601562 181.246094 " clip-rule="nonzero"/></clipPath><clipPath id="id4"><path d="M 42.601562 181.246094 L 171.832031 77.457031 L 273.742188 204.347656 L 144.511719 308.136719 Z M 42.601562 181.246094 " clip-rule="nonzero"/></clipPath></defs><g fill="#000000" fill-opacity="1"><g transform="translate(14.491576, 220.668483)"><g><path d="M 134.53125 -151.425781 C 133.753906 -151.355469 133.117188 -150.964844 132.519531 -150.125 C 128.957031 -148.582031 119.46875 -146.960938 104.136719 -145.5 C 88.695312 -144.027344 73.246094 -142.667969 57.550781 -141.507812 L 50.214844 -140.863281 C 50.289062 -141.316406 50.257812 -141.652344 50.339844 -141.992188 L 50.328125 -142.105469 C 50.390625 -142.671875 50.351562 -143.117188 50.101562 -143.429688 C 49.738281 -143.734375 49.273438 -143.917969 48.71875 -143.867188 C 48.164062 -143.820312 47.738281 -143.558594 47.324219 -143.183594 C 46.796875 -142.800781 46.5 -142.328125 46.441406 -141.761719 L 46.449219 -141.652344 C 46.367188 -141.308594 46.285156 -140.964844 46.203125 -140.621094 C 26.519531 -139 12.523438 -137.65625 4.105469 -136.578125 C -4.425781 -135.492188 -9.136719 -134.292969 -10.253906 -132.960938 C -10.878906 -132.457031 -11.277344 -131.863281 -11.328125 -131.1875 C -11.390625 -130.621094 -11.339844 -130.066406 -10.976562 -129.761719 C -10.726562 -129.449219 -10.261719 -129.265625 -9.707031 -129.3125 C -9.039062 -129.371094 -8.402344 -129.765625 -7.894531 -130.367188 C -5.296875 -131.382812 1.101562 -132.503906 11.429688 -133.527344 C 21.757812 -134.546875 33.097656 -135.546875 45.554688 -136.53125 C 44.355469 -129.816406 42.621094 -120.253906 40.363281 -107.734375 C 38.003906 -95.089844 35.601562 -81.660156 33.046875 -67.433594 C 30.242188 -52.175781 27.851562 -38.636719 25.746094 -26.910156 C 23.542969 -15.066406 22.1875 -7.554688 21.582031 -4.253906 C 21.519531 -3.6875 21.558594 -3.242188 21.921875 -2.9375 C 22.292969 -2.523438 22.648438 -2.332031 23.203125 -2.378906 C 23.757812 -2.429688 24.183594 -2.691406 24.699219 -3.183594 C 25.117188 -3.554688 25.410156 -4.03125 25.472656 -4.59375 C 26.078125 -7.898438 27.433594 -15.410156 29.636719 -27.253906 C 31.742188 -38.976562 34.132812 -52.519531 36.945312 -67.664062 C 37.015625 -68.121094 37.089844 -68.574219 37.160156 -69.027344 C 39.738281 -83.035156 42.160156 -96.242188 44.324219 -108.53125 C 46.492188 -120.820312 48.234375 -130.269531 49.445312 -136.875 C 52.003906 -137.101562 54.449219 -137.316406 56.792969 -137.410156 C 81.601562 -139.371094 100.375 -141.136719 113.128906 -142.59375 C 125.773438 -144.042969 133.023438 -145.691406 134.988281 -147.542969 C 135.714844 -148.167969 136.101562 -148.875 136.144531 -149.660156 C 136.207031 -150.226562 136.167969 -150.671875 135.914062 -150.984375 C 135.554688 -151.289062 135.089844 -151.472656 134.53125 -151.425781 Z M 134.53125 -151.425781 "/></g></g></g><g fill="#000000" fill-opacity="1"><g transform="translate(70.896544, 215.682903)"><g><path d="M 5.449219 -63.980469 C 4.78125 -63.945312 4.125 -63.6875 3.476562 -63.320312 C 1.96875 -62.234375 0.816406 -60.71875 -0.0742188 -58.550781 C -0.964844 -56.378906 -1.414062 -54.34375 -1.316406 -52.449219 C -1.285156 -51.894531 -1.140625 -51.230469 -0.769531 -50.578125 C -0.511719 -49.921875 -0.046875 -49.613281 0.730469 -49.652344 C 1.957031 -49.71875 3.566406 -51.03125 5.328125 -53.582031 C 7.101562 -56.023438 8.855469 -58.796875 10.488281 -61.675781 C 9.792969 -62.199219 8.976562 -62.828125 8.167969 -63.34375 C 7.355469 -63.859375 6.453125 -64.035156 5.449219 -63.980469 Z M 17.332031 -67.515625 C 17.46875 -67.074219 17.292969 -66.171875 16.921875 -64.699219 C 15.890625 -60.957031 15.609375 -57.8125 16.066406 -55.492188 C 16.53125 -53.058594 18.507812 -51.597656 22.105469 -51.226562 C 29.855469 -50.40625 40.125 -54.859375 53.128906 -64.710938 C 53.667969 -65.074219 54.21875 -65.214844 54.777344 -65.242188 C 55.226562 -65.15625 55.574219 -64.949219 55.929688 -64.523438 C 56.175781 -64.089844 56.199219 -63.644531 56.117188 -63.078125 C 55.925781 -62.511719 55.613281 -62.046875 55.074219 -61.683594 C 42.824219 -52.433594 32.46875 -47.527344 24.109375 -47.085938 C 22.882812 -47.023438 21.765625 -47.074219 20.636719 -47.238281 C 16.925781 -47.714844 14.515625 -48.925781 13.40625 -50.878906 C 12.304688 -52.722656 11.75 -54.703125 11.855469 -56.945312 C 11.335938 -56.246094 10.925781 -55.554688 10.515625 -54.863281 C 8.867188 -52.207031 7.1875 -50.105469 5.382812 -48.335938 C 3.578125 -46.5625 1.835938 -45.6875 -0.0585938 -45.589844 C -3.066406 -45.429688 -4.84375 -47.347656 -5.273438 -51.234375 C -5.519531 -53.792969 -4.886719 -56.621094 -3.597656 -59.703125 C -2.300781 -62.679688 -0.300781 -65.019531 2.183594 -66.601562 C 3.367188 -67.449219 4.910156 -67.863281 6.804688 -67.964844 C 8.589844 -68.058594 10.53125 -67.265625 12.742188 -65.597656 C 13.046875 -66.171875 13.355469 -66.632812 13.667969 -67.097656 C 13.972656 -67.671875 14.402344 -68.03125 14.945312 -68.28125 C 15.492188 -68.535156 15.9375 -68.558594 16.507812 -68.363281 C 16.957031 -68.277344 17.199219 -67.953125 17.332031 -67.515625 Z M 17.332031 -67.515625 "/></g></g></g><g fill="#000000" fill-opacity="1"><g transform="translate(124.355744, 212.802164)"><g><path d="M 8.515625 -35.085938 C -2.917969 -25.503906 -11.558594 -15.863281 -17.523438 -6.269531 C -23.488281 3.4375 -26.800781 11.421875 -27.46875 17.683594 C -27.671875 18.914062 -27.648438 20.144531 -27.511719 21.589844 C -27.375 23.039062 -27.015625 24.371094 -26.214844 25.363281 C -25.527344 26.464844 -24.289062 27.003906 -22.503906 26.96875 C -19.824219 26.921875 -17.273438 25.980469 -14.964844 24.042969 C -10.023438 19.601562 -5.695312 12.15625 -1.980469 1.488281 C 1.730469 -9.183594 5.195312 -21.300781 8.515625 -35.085938 Z M 7.441406 -63.75 C 6.882812 -63.742188 6.214844 -63.503906 5.554688 -63.160156 C 3.898438 -62.125 2.695312 -60.652344 1.730469 -58.511719 C 0.765625 -56.375 0.355469 -54.359375 0.390625 -52.460938 C 0.289062 -51.902344 0.410156 -51.234375 0.757812 -50.570312 C 0.992188 -49.90625 1.445312 -49.578125 2.226562 -49.59375 C 3.453125 -49.617188 5.105469 -50.875 6.957031 -53.363281 C 8.8125 -55.738281 10.660156 -58.453125 12.394531 -61.273438 C 11.828125 -61.820312 11.035156 -62.476562 10.242188 -63.019531 C 9.339844 -63.5625 8.445312 -63.769531 7.441406 -63.75 Z M 17.078125 -67.71875 C 17.519531 -67.949219 17.855469 -67.957031 18.304688 -67.855469 L 18.414062 -67.855469 C 18.972656 -67.867188 19.3125 -67.648438 19.652344 -67.320312 C 19.992188 -66.992188 20 -66.546875 19.898438 -65.984375 C 18.441406 -60.15625 16.984375 -54.324219 15.636719 -48.609375 L 14.597656 -44.347656 C 26.609375 -52.824219 40.996094 -59.558594 57.761719 -64.550781 C 58.316406 -64.671875 58.761719 -64.679688 59.210938 -64.464844 C 59.554688 -64.136719 59.78125 -63.804688 59.792969 -63.246094 C 59.804688 -62.6875 59.585938 -62.238281 59.261719 -61.785156 C 58.9375 -61.222656 58.386719 -60.878906 57.828125 -60.757812 C 40.292969 -55.417969 25.46875 -48.117188 13.359375 -38.859375 C 9.730469 -23.503906 5.957031 -9.929688 1.925781 1.640625 C -2.214844 13.320312 -7.085938 21.667969 -12.90625 26.796875 C -16.207031 29.535156 -19.753906 30.9375 -23.546875 31.007812 C -29.460938 31.113281 -32.101562 26.921875 -31.589844 18.316406 C -30.828125 11.050781 -26.972656 1.9375 -20.140625 -9.011719 C -13.304688 -19.847656 -3.339844 -30.410156 9.863281 -40.804688 L 11.734375 -48.425781 L 13.707031 -56.722656 L 12.183594 -54.460938 C 10.445312 -51.863281 8.695312 -49.824219 6.832031 -48.113281 C 4.964844 -46.40625 3.191406 -45.59375 1.296875 -45.558594 C -1.714844 -45.503906 -3.316406 -47.484375 -3.71875 -51.382812 C -3.765625 -53.949219 -3.035156 -56.753906 -1.640625 -59.792969 C -0.242188 -62.71875 1.726562 -64.988281 4.265625 -66.484375 C 5.589844 -67.289062 7.144531 -67.652344 8.929688 -67.683594 C 10.714844 -67.714844 12.628906 -66.859375 14.78125 -65.109375 C 15.105469 -65.675781 15.433594 -66.128906 15.757812 -66.578125 C 16.082031 -67.144531 16.523438 -67.488281 17.078125 -67.71875 Z M 17.078125 -67.71875 "/></g></g></g><g fill="#000000" fill-opacity="1"><g transform="translate(179.076235, 211.606693)"><g><path d="M 33.550781 -65.355469 C 34.234375 -66.121094 34.917969 -66.664062 35.367188 -66.765625 C 35.925781 -66.867188 36.371094 -66.855469 36.8125 -66.511719 C 37.140625 -66.28125 37.246094 -65.945312 37.351562 -65.609375 C 37.34375 -65.382812 37.339844 -65.050781 37.332031 -64.828125 L 37.09375 -64.050781 C 36.378906 -61.945312 35.882812 -59.722656 35.617188 -57.609375 C 35.347656 -55.492188 35.753906 -53.585938 36.945312 -52 C 38.140625 -50.410156 40.574219 -49.464844 44.25 -49.050781 C 49.042969 -48.835938 54.09375 -50.070312 59.621094 -52.851562 C 65.148438 -55.523438 70.125 -58.542969 74.546875 -61.683594 C 75.109375 -62.003906 75.558594 -62.109375 76.117188 -62.097656 C 76.671875 -61.972656 77 -61.742188 77.328125 -61.398438 C 77.542969 -60.949219 77.535156 -60.503906 77.410156 -59.949219 C 77.175781 -59.394531 76.832031 -58.957031 76.265625 -58.632812 C 71.394531 -55.277344 66.191406 -52.152344 60.664062 -49.367188 C 55.019531 -46.476562 49.519531 -45.03125 44.273438 -45.035156 C 43.714844 -45.046875 43.269531 -45.054688 42.828125 -45.175781 C 37.925781 -45.726562 34.722656 -47.136719 33.320312 -49.398438 C 31.800781 -51.550781 31.183594 -54.019531 31.582031 -56.800781 C 31.59375 -57.472656 31.71875 -58.027344 31.730469 -58.585938 C 29.335938 -56.179688 26.949219 -54.222656 24.683594 -52.710938 C 20.832031 -50.003906 17.441406 -48.175781 14.410156 -47.238281 C 11.375 -46.296875 9.019531 -45.792969 7.125 -45.832031 C 6.566406 -45.84375 6.007812 -45.855469 5.453125 -45.980469 C -0.660156 -47.117188 -1.414062 -53.71875 2.972656 -65.675781 C 3.210938 -66.230469 3.554688 -66.78125 4.121094 -67.101562 C 4.574219 -67.429688 5.023438 -67.53125 5.578125 -67.40625 C 6.136719 -67.394531 6.578125 -67.164062 6.792969 -66.824219 C 7.007812 -66.371094 6.996094 -65.8125 6.871094 -65.257812 C 5.566406 -61.714844 4.726562 -58.941406 4.460938 -56.9375 C 4.191406 -54.824219 4.273438 -53.371094 4.585938 -52.359375 C 4.898438 -51.347656 5.332031 -50.671875 5.882812 -50.324219 C 6.433594 -49.976562 6.875 -49.855469 7.320312 -49.847656 C 8.761719 -49.257812 11.902344 -50.082031 16.746094 -52.097656 C 21.476562 -54.007812 27.039062 -58.464844 33.550781 -65.355469 Z M 33.550781 -65.355469 "/></g></g></g><g fill="#000000" fill-opacity="1"><g transform="translate(247.533976, 212.571922)"><g><path d="M 2.859375 -45.664062 C 2.523438 -45.691406 2.199219 -45.828125 1.871094 -45.964844 C 1.339844 -46.339844 1.160156 -46.910156 1.125 -47.921875 C 1.078125 -48.820312 1.425781 -50.472656 2.167969 -52.878906 C 2.90625 -55.285156 4.0625 -58.78125 5.636719 -63.363281 L 6.34375 -65.324219 C 6.605469 -65.863281 6.972656 -66.28125 7.554688 -66.574219 C 8.027344 -66.875 8.488281 -67.066406 9.042969 -67.023438 C 9.601562 -66.980469 9.917969 -66.734375 10.226562 -66.375 C 10.535156 -66.015625 10.5 -65.570312 10.347656 -65.023438 L 9.644531 -63.0625 C 9.089844 -61.648438 8.382812 -59.6875 7.652344 -57.390625 C 6.921875 -55.097656 6.207031 -53.023438 5.730469 -51.15625 C 11.53125 -55.421875 16.832031 -58.941406 21.394531 -61.621094 C 25.960938 -64.300781 29.742188 -65.472656 32.855469 -65.242188 C 34.972656 -65.082031 36.257812 -64.316406 36.832031 -63.042969 C 37.289062 -61.664062 37.394531 -60.089844 37.144531 -58.207031 C 36.890625 -56.324219 36.414062 -54.457031 35.949219 -52.699219 C 35.761719 -51.707031 35.464844 -50.722656 35.277344 -49.730469 C 35.082031 -48.625 35.023438 -47.847656 35.101562 -47.394531 C 35.785156 -47.566406 36.957031 -48.261719 38.496094 -49.375 C 40.035156 -50.492188 41.453125 -51.503906 42.878906 -52.628906 C 46.21875 -55.402344 49.648438 -57.832031 53.167969 -60.027344 C 56.691406 -62.226562 59.898438 -63.21875 62.902344 -62.992188 C 64.347656 -62.882812 65.4375 -62.46875 65.933594 -61.648438 C 66.433594 -60.828125 66.8125 -59.902344 66.839844 -58.78125 C 66.859375 -57.550781 66.878906 -56.316406 66.789062 -55.09375 C 66.550781 -53.433594 66.539062 -51.753906 66.761719 -50.28125 C 66.980469 -48.699219 67.554688 -47.425781 68.707031 -46.332031 C 69.855469 -45.238281 71.816406 -44.535156 74.597656 -44.324219 C 78.828125 -44.007812 83.589844 -44.882812 88.78125 -46.957031 C 93.964844 -48.917969 98.820312 -51.015625 103.121094 -53.15625 C 104.746094 -53.929688 106.25 -54.601562 107.757812 -55.273438 C 108.335938 -55.566406 108.792969 -55.640625 109.339844 -55.488281 C 109.777344 -55.34375 110.085938 -54.984375 110.273438 -54.523438 C 110.34375 -53.960938 110.308594 -53.515625 110.046875 -52.976562 C 109.671875 -52.445312 109.3125 -52.132812 108.730469 -51.84375 C 107.34375 -51.273438 105.953125 -50.59375 104.445312 -49.925781 C 104.328125 -49.820312 104.328125 -49.820312 104.214844 -49.832031 C 101.199219 -48.378906 97.949219 -46.832031 94.375 -45.417969 C 90.792969 -43.898438 87.226562 -42.597656 83.574219 -41.640625 C 79.921875 -40.683594 76.53125 -40.265625 73.304688 -40.503906 C 69.410156 -40.796875 66.796875 -41.777344 65.238281 -43.347656 C 63.675781 -44.917969 62.800781 -46.664062 62.617188 -48.691406 C 62.429688 -50.71875 62.351562 -52.628906 62.59375 -54.398438 C 62.726562 -56.179688 62.707031 -57.414062 62.648438 -58.089844 C 62.585938 -58.765625 62.164062 -59.132812 61.609375 -59.171875 C 59.496094 -59.332031 56.964844 -58.402344 53.902344 -56.394531 C 50.734375 -54.390625 47.777344 -52.261719 45.023438 -49.894531 C 42.53125 -47.957031 40.28125 -46.332031 38.402344 -45.132812 C 36.523438 -43.929688 34.914062 -43.378906 33.578125 -43.476562 C 32.242188 -43.578125 31.386719 -44.089844 31.121094 -45.003906 C 30.851562 -45.921875 30.824219 -47.042969 31.042969 -48.480469 C 31.253906 -49.808594 31.472656 -51.246094 31.917969 -52.667969 C 32.699219 -55.628906 33.191406 -57.71875 33.1875 -59.175781 C 33.183594 -60.628906 32.675781 -61.339844 31.5625 -61.421875 C 29.117188 -61.605469 25.660156 -60.296875 21.078125 -57.394531 C 16.5 -54.492188 11.550781 -51.167969 6.226562 -47.316406 L 4.6875 -46.199219 C 4.570312 -46.097656 4.457031 -46.105469 4.335938 -46.003906 C 3.757812 -45.710938 3.304688 -45.632812 2.859375 -45.664062 Z M 2.859375 -45.664062 "/></g></g></g><g clip-path="url(#id1)"><g clip-path="url(#id2)"><g clip-path="url(#id3)"><g clip-path="url(#id4)"><path fill="#231f20" d="M 42.683594 181.296875 C 51.507812 182.828125 60.058594 185.632812 68.058594 189.574219 C 72.121094 191.597656 76.058594 193.921875 79.792969 196.496094 C 83.667969 199.195312 87.238281 202.222656 90.875 205.238281 C 97.617188 210.796875 104.808594 216.363281 113.566406 218.113281 C 120.800781 219.535156 128.871094 218.300781 134.289062 213.011719 C 137.644531 209.75 140.09375 205.667969 144.070312 203.085938 C 147.878906 200.59375 152.390625 199.535156 156.902344 200.09375 C 165.289062 201.125 171.582031 207.292969 177.316406 212.96875 C 180.269531 215.882812 183.257812 218.847656 186.644531 221.292969 C 189.757812 223.550781 193.167969 225.320312 196.765625 226.660156 C 204.0625 229.375 211.957031 230.152344 219.683594 229.554688 C 237.640625 228.140625 253.773438 219.089844 268.027344 208.613281 C 269.914062 207.222656 271.78125 205.804688 273.628906 204.359375 C 273.703125 204.300781 273.203125 204.335938 273.179688 204.355469 C 272.972656 204.402344 272.632812 204.429688 272.433594 204.589844 C 258.054688 215.773438 241.863281 226.621094 223.355469 228.964844 C 215.5625 229.9375 207.503906 229.460938 200.011719 227.0625 C 196.308594 225.890625 192.746094 224.238281 189.503906 222.125 C 186.117188 219.929688 183.125 217.167969 180.253906 214.351562 C 174.652344 208.890625 168.996094 202.660156 161.214844 200.453125 C 153.980469 198.378906 145.464844 200.421875 139.988281 205.589844 C 136.671875 208.742188 134.308594 212.835938 130.445312 215.410156 C 127.042969 217.695312 123.074219 218.523438 119.019531 218.328125 C 110.292969 217.933594 102.738281 213.433594 96.03125 208.167969 C 92.335938 205.285156 88.820312 202.171875 85.121094 199.289062 C 81.71875 196.617188 78.105469 194.191406 74.375 192.027344 C 66.804688 187.65625 58.621094 184.351562 50.128906 182.269531 C 48.082031 181.796875 45.988281 181.367188 43.863281 181 C 43.621094 180.949219 43.339844 181.054688 43.109375 181.117188 C 43.039062 181.132812 42.636719 181.292969 42.683594 181.296875 Z M 42.683594 181.296875 " fill-opacity="1" fill-rule="nonzero"/></g></g></g></g><g fill="#000000" fill-opacity="1"><g transform="translate(271.153112, 213.65773)"><g><path d="M 9.203125 0.125 C 7.671875 0.125 6.289062 -0.207031 5.0625 -0.875 C 3.84375 -1.550781 2.882812 -2.488281 2.1875 -3.6875 C 1.488281 -4.882812 1.140625 -6.222656 1.140625 -7.703125 C 1.140625 -9.179688 1.488281 -10.519531 2.1875 -11.71875 C 2.882812 -12.914062 3.847656 -13.847656 5.078125 -14.515625 C 6.316406 -15.191406 7.695312 -15.53125 9.21875 -15.53125 C 10.363281 -15.53125 11.421875 -15.335938 12.390625 -14.953125 C 13.359375 -14.578125 14.175781 -14.019531 14.84375 -13.28125 L 13.8125 -12.25 C 12.613281 -13.46875 11.097656 -14.078125 9.265625 -14.078125 C 8.046875 -14.078125 6.9375 -13.796875 5.9375 -13.234375 C 4.9375 -12.679688 4.15625 -11.921875 3.59375 -10.953125 C 3.03125 -9.984375 2.75 -8.898438 2.75 -7.703125 C 2.75 -6.492188 3.03125 -5.40625 3.59375 -4.4375 C 4.15625 -3.46875 4.9375 -2.703125 5.9375 -2.140625 C 6.9375 -1.585938 8.046875 -1.3125 9.265625 -1.3125 C 11.109375 -1.3125 12.625 -1.929688 13.8125 -3.171875 L 14.84375 -2.140625 C 14.175781 -1.398438 13.351562 -0.835938 12.375 -0.453125 C 11.394531 -0.0664062 10.335938 0.125 9.203125 0.125 Z M 9.203125 0.125 "/></g></g></g><g fill="#000000" fill-opacity="1"><g transform="translate(286.968297, 213.65773)"><g/></g></g><g fill="#000000" fill-opacity="1"><g transform="translate(292.731266, 213.65773)"><g><path d="M 2.515625 -15.40625 L 4.140625 -15.40625 L 4.140625 0 L 2.515625 0 Z M 2.515625 -15.40625 "/></g></g></g><g fill="#000000" fill-opacity="1"><g transform="translate(299.374081, 213.65773)"><g/></g></g><g fill="#000000" fill-opacity="1"><g transform="translate(305.13705, 213.65773)"><g><path d="M 5.5 -13.984375 L 0.09375 -13.984375 L 0.09375 -15.40625 L 12.546875 -15.40625 L 12.546875 -13.984375 L 7.125 -13.984375 L 7.125 0 L 5.5 0 Z M 5.5 -13.984375 "/></g></g></g><g fill="#000000" fill-opacity="1"><g transform="translate(317.762801, 213.65773)"><g/></g></g><g fill="#000000" fill-opacity="1"><g transform="translate(323.52577, 213.65773)"><g><path d="M 7.78125 -5.328125 L 7.78125 0 L 6.1875 0 L 6.1875 -5.328125 L 0.015625 -15.40625 L 1.765625 -15.40625 L 7.046875 -6.75 L 12.3125 -15.40625 L 13.953125 -15.40625 Z M 7.78125 -5.328125 "/></g></g></g></svg>